<?xml version="1.0" encoding="UTF-8" standalone="no"?>
<svg
   xmlns:dc="http://purl.org/dc/elements/1.1/"
   xmlns:cc="http://creativecommons.org/ns#"
   xmlns:rdf="http://www.w3.org/1999/02/22-rdf-syntax-ns#"
   xmlns:svg="http://www.w3.org/2000/svg"
   xmlns="http://www.w3.org/2000/svg"
   xmlns:sodipodi="http://sodipodi.sourceforge.net/DTD/sodipodi-0.dtd"
   xmlns:inkscape="http://www.inkscape.org/namespaces/inkscape"
   width="210mm"
   height="210mm"
   viewBox="0 0 210 210"
   version="1.1"
   id="svg8"
   inkscape:version="1.0.1 (3bc2e813f5, 2020-09-07)"
   sodipodi:docname="circle.svg">
  <defs
     id="defs2" />
  <sodipodi:namedview
     id="base"
     pagecolor="#ffffff"
     bordercolor="#666666"
     borderopacity="1.0"
     inkscape:pageopacity="0.0"
     inkscape:pageshadow="2"
     inkscape:zoom="0.98994949"
     inkscape:cx="365.21325"
     inkscape:cy="439.39392"
     inkscape:document-units="mm"
     inkscape:current-layer="layer1"
     inkscape:document-rotation="0"
     showgrid="false"
     inkscape:window-width="1920"
     inkscape:window-height="986"
     inkscape:window-x="-11"
     inkscape:window-y="-11"
     inkscape:window-maximized="1" />
  <metadata
     id="metadata5">
    <rdf:RDF>
      <cc:Work
         rdf:about="">
        <dc:format>image/svg+xml</dc:format>
        <dc:type
           rdf:resource="http://purl.org/dc/dcmitype/StillImage" />
        <dc:title></dc:title>
      </cc:Work>
    </rdf:RDF>
  </metadata>
  <g
     inkscape:label="Layer 1"
     inkscape:groupmode="layer"
     id="layer1">
    <path
       style="fill:#000000;stroke:#d10000;stroke-width:0.034296"
       id="path839"
       sodipodi:type="arc"
       sodipodi:cx="103.94345"
       sodipodi:cy="103.94344"
       sodipodi:rx="86.930603"
       sodipodi:ry="91.466316"
       sodipodi:start="0"
       sodipodi:end="6.2829584"
       sodipodi:open="true"
       sodipodi:arc-type="arc"
       d="M 190.87405,103.94344 A 86.930603,91.466316 0 0 1 103.94838,195.40976 86.930603,91.466316 0 0 1 17.012848,103.95382 86.930603,91.466316 0 0 1 103.92866,12.477128 86.930603,91.466316 0 0 1 190.87405,103.92269" />
    <path
       style="fill:#ffffff;stroke:#030000;stroke-width:0.2;fill-opacity:1;stroke-opacity:1;stroke-miterlimit:4;stroke-dasharray:none"
       id="path843"
       sodipodi:type="arc"
       sodipodi:cx="103.94345"
       sodipodi:cy="103.94344"
       sodipodi:rx="86.930603"
       sodipodi:ry="91.466316"
       sodipodi:start="0"
       sodipodi:end="6.2829584"
       sodipodi:open="true"
       sodipodi:arc-type="arc"
       d="M 190.87405,103.94344 A 86.930603,91.466316 0 0 1 103.94838,195.40976 86.930603,91.466316 0 0 1 17.012848,103.95382 86.930603,91.466316 0 0 1 103.92866,12.477128 86.930603,91.466316 0 0 1 190.87405,103.92269" />
    <path
       style="fill:#ffffff;fill-opacity:1;stroke:#000000;stroke-width:0.2;stroke-miterlimit:4;stroke-dasharray:none;stroke-opacity:1"
       id="path845"
       sodipodi:type="arc"
       sodipodi:cx="103.94345"
       sodipodi:cy="103.94344"
       sodipodi:rx="72.948425"
       sodipodi:ry="74.838303"
       sodipodi:start="0"
       sodipodi:end="6.2829584"
       sodipodi:open="true"
       sodipodi:arc-type="arc"
       d="M 176.89188,103.94344 A 72.948425,74.838303 0 0 1 103.94759,178.78175 72.948425,74.838303 0 0 1 30.995026,103.95193 72.948425,74.838303 0 0 1 103.93104,29.105142 72.948425,74.838303 0 0 1 176.89187,103.92646" />
  </g>
</svg>
