<?xml version="1.0" encoding="UTF-8" standalone="no"?>
<svg
   xmlns:dc="http://purl.org/dc/elements/1.1/"
   xmlns:cc="http://creativecommons.org/ns#"
   xmlns:rdf="http://www.w3.org/1999/02/22-rdf-syntax-ns#"
   xmlns:svg="http://www.w3.org/2000/svg"
   xmlns="http://www.w3.org/2000/svg"
   xmlns:sodipodi="http://sodipodi.sourceforge.net/DTD/sodipodi-0.dtd"
   xmlns:inkscape="http://www.inkscape.org/namespaces/inkscape"
   width="210mm"
   height="297mm"
   viewBox="0 0 210 297"
   version="1.1"
   id="svg8"
   inkscape:version="1.0.1 (3bc2e813f5, 2020-09-07)"
   sodipodi:docname="coyote.svg"
   inkscape:export-filename="C:\Users\user\Downloads\c_Lefthand.png"
   inkscape:export-xdpi="200"
   inkscape:export-ydpi="200">
  <defs
     id="defs2">
    <filter
       inkscape:collect="always"
       style="color-interpolation-filters:sRGB"
       id="filter943"
       x="-3.7301341e-05"
       width="1.0000746"
       y="-5.1314659e-05"
       height="1.0001026">
      <feGaussianBlur
         inkscape:collect="always"
         stdDeviation="0.00347345"
         id="feGaussianBlur945" />
    </filter>
    <filter
       inkscape:collect="always"
       style="color-interpolation-filters:sRGB"
       id="filter904-2"
       x="-9.3253357e-06"
       width="1.0000187"
       y="-1.2828665e-05"
       height="1.0000257">
      <feGaussianBlur
         inkscape:collect="always"
         stdDeviation="0.0008683625"
         id="feGaussianBlur906-2" />
    </filter>
  </defs>
  <sodipodi:namedview
     id="base"
     pagecolor="#ffffff"
     bordercolor="#666666"
     borderopacity="1.0"
     inkscape:pageopacity="0.0"
     inkscape:pageshadow="2"
     inkscape:zoom="0.56772651"
     inkscape:cx="206.00932"
     inkscape:cy="645.54526"
     inkscape:document-units="mm"
     inkscape:current-layer="g1691"
     inkscape:document-rotation="0"
     showgrid="false"
     inkscape:window-width="1920"
     inkscape:window-height="1001"
     inkscape:window-x="-9"
     inkscape:window-y="-9"
     inkscape:window-maximized="1" />
  <metadata
     id="metadata5">
    <rdf:RDF>
      <cc:Work
         rdf:about="">
        <dc:format>image/svg+xml</dc:format>
        <dc:type
           rdf:resource="http://purl.org/dc/dcmitype/StillImage" />
        <dc:title />
      </cc:Work>
    </rdf:RDF>
  </metadata>
  <g
     inkscape:groupmode="layer"
     id="layer6"
     inkscape:label="facetop"
     style="display:inline;opacity:1;mix-blend-mode:normal">
    <path
       style="fill:#3f1a0d;fill-opacity:0.992157;stroke:#2c1a0a;stroke-width:0.264583px;stroke-linecap:butt;stroke-linejoin:miter;stroke-opacity:0.992157"
       d="m 83.227905,103.91775 c -1.889758,-0.62992 -0.419947,-2.88714 -0.419947,-2.88714 0,0 1.207344,-2.624668 2.362207,-2.257221 0,0 5.19683,-3.254582 5.931734,-3.097092 0,0 2.834635,-1.207354 3.464562,-1.049874 0,0 4.566912,-0.997374 6.456669,1.574801 0,0 4.0945,2.467185 4.51445,2.519675 0,0 2.78216,2.729661 7.40159,0.787404 0,0 7.50662,-2.624665 13.91087,-1.102361 0,0 16.27309,2.782148 16.43058,3.149598 0,0 9.60637,2.30972 9.18642,2.51969 0,0 0.20998,1.6273 -4.09452,1.88977 0,0 4.72445,1.83728 5.51185,1.46982 0,0 1.41734,0.73491 -2.67718,1.20735 -27.48112,7.26414 -45.77553,-2.31385 -67.979285,-4.72442"
       id="path1160"
       sodipodi:nodetypes="ccccccccccccccc" />
    <path
       style="fill:none;stroke:#000000;stroke-width:0.264583px;stroke-linecap:butt;stroke-linejoin:miter;stroke-opacity:1"
       d="m 112.8858,102.99078 c 0,0 7.08968,-3.229317 11.39545,-2.19"
       id="path1172" />
    <path
       style="fill:none;stroke:#000000;stroke-width:0.264583px;stroke-linecap:butt;stroke-linejoin:miter;stroke-opacity:1"
       d="m 124.28125,100.80078 c 0,0 7.9063,-0.51966 10.80156,1.48474"
       id="path1174" />
    <path
       style="fill:none;stroke:#000000;stroke-width:0.264583px;stroke-linecap:butt;stroke-linejoin:miter;stroke-opacity:1"
       d="m 135.08281,102.28552 c 0,0 10.13343,2.63542 10.2819,2.96949 0.14848,0.33407 3.00781,0.70999 3.00781,0.70999"
       id="path1176" />
  </g>
  <g
     inkscape:groupmode="layer"
     id="g1691"
     inkscape:label="Lefthand"
     style="display:inline">
    <path
       style="fill:#361e0c;fill-opacity:0.992157;stroke:#000000;stroke-width:0.264583px;stroke-linecap:butt;stroke-linejoin:miter;stroke-opacity:1"
       d="m 95.913372,143.5253 c 0.12617,-0.7052 -1.423511,-1.67533 -1.423511,-1.67533 0,0 -8.271872,-1.54754 -9.062119,-1.19986 0,0 -7.822913,-0.42003 -8.046633,-0.38961 0,0 -3.61819,-0.70255 -3.73393,-0.55748 0,0 0.717577,0.83847 1.451834,1.12042 0,0 1.790189,0.98201 -4.178049,-0.60792 0,0 0.0891,0.74537 0.45787,0.83069 0,0 -1.197254,0.29834 -2.268758,0.11771 l -4.452206,-0.13338 c -0.742024,-0.0222 -3.063872,-0.61168 -3.359579,-0.65768 -0.29571,-0.046 -2.029479,-0.43216 -2.547789,-0.48482 -0.518317,-0.0526 -1.657358,-0.45813 -2.172325,-0.6221 0,0 -4.334656,-1.57813 -6.498784,-1.23447 -2.164118,0.34365 -4.492636,-0.0232 -4.492636,-0.0232 0,0 -4.356453,0.38938 -3.963906,0.92103 0,0 -0.734937,0.98063 0.14661,1.30413 0,0 -0.12307,1.63026 -1.251724,2.11634 0,0 -1.111514,1.15503 -4.301156,1.02234 0,0 -4.978293,0.0737 -5.30776,-0.0848 -4.176566,0.0525 -9.648296,-2.33665 -0.14745,-3.75503 0,0 9.204129,-1.06113 0.36128,-2.14302 0,0 -9.756636,-0.32941 -10.49311,-0.53716 0,0 -6.778914,-1.7999 -0.17233,-4.16431 0,0 10.62998,-0.31285 11.762344,0.31526 0,0 2.764432,-0.5485 0.0378,-1.26149 -2.726625,-0.71297 -12.146,-1.14371 -12.146,-1.14371 0,0 -6.300357,-2.89961 0.196886,-2.85351 6.497234,0.0461 10.225623,0.78909 10.225623,0.78909 0,0 3.985436,-0.40048 -0.785127,-1.06329 0,0 -9.489136,-0.58136 -10.25493,-1.04992 -0.765807,-0.46857 -2.653975,-1.89914 0.229537,-2.704 2.883505,-0.80486 9.35365,-1.09379 9.896847,-0.63189 0,0 4.687452,0.95739 6.165693,3.67542 0,0 4.075796,4.0213 3.943366,4.7229 0,0 2.319358,3.1517 8.337615,3.07205 0,0 10.731707,1.24988 12.123362,0.66028 0.624057,0.2415 11.204707,0.33567 11.204707,0.33567 0,0 5.492168,0.12741 5.497728,-0.0581 0.006,-0.18552 8.032863,-0.39066 8.226163,-0.64481 0,0 11.915451,-0.68944 12.667618,-0.37807 0,0 2.226027,0.19799 4.082237,2.22298 0,0 2.11619,3.06509 0.6492,3.68958 -1.46697,0.62449 -1.89468,2.50557 -3.609144,2.71416 -1.71445,0.20858 -2.995354,0.42889 -2.995354,0.42889"
       id="path1689"
       sodipodi:nodetypes="cccccccccssscscccccccccccscsccssccccccscccssc"
       inkscape:transform-center-x="38.301079"
       inkscape:transform-center-y="-6.5816496" />
  </g>
  <g
     inkscape:groupmode="layer"
     id="layer4"
     inkscape:label="mainbody"
     style="display:inline;opacity:1">
    <path
       style="display:inline;opacity:0.992;fill:#8c705e;fill-opacity:0.992157;stroke:#000000;stroke-width:0.999999px;stroke-linecap:butt;stroke-linejoin:miter;stroke-opacity:1;filter:url(#filter943)"
       d="m 27.143473,10.569733 c 0,0 9.225676,3.075212 9.225676,7.241612 0,0 7.043225,0.297449 8.3328,3.868838 0,0 7.043263,0.198425 10.316863,8.6304 0,0 4.364825,-1.289575 6.249638,3.868838 0,0 7.043225,-0.793625 7.241612,7.241613 0,0 3.769626,-1.388788 5.059238,1.785638 0,0 4.966829,4.765833 7.351786,3.082356 0,0 1.823773,7.435389 37.176984,-0.280441 0,0 7.78613,-2.805959 11.43371,-1.473185 0,0 27.14623,-4.489285 32.828,-1.473071 0,0 20.13169,4.419175 21.74502,5.82206 0,0 17.11546,0.841777 0.84174,3.857991 0,0 11.1531,4.699767 13.60819,4.489323 0,0 8.90845,2.665512 2.24465,4.419137 0,0 5.40088,3.776731 6.19448,3.875905 0,0 4.66242,3.968013 3.67041,4.364826 0,0 3.86882,3.968012 5.25763,3.968012 0,0 7.63843,1.1904 2.08321,-5.158412 0,0 -16.26887,-9.027251 4.26562,-7.241651 0,0 24.4033,-3.174387 27.18091,-2.6784 0,0 28.66893,4.364825 32.73615,5.555225 0,0 33.13293,5.852826 34.22414,7.241651 0,0 24.40331,0 25.89131,1.289575 0,0 16.36807,2.876825 -3.27361,5.15845 0,0 -8.23363,-0.694412 -9.02724,-0.793625 0,0 1.28961,9.32485 -27.77611,5.257625 0,0 10.01924,8.432051 -33.92656,2.281625 0,0 1.09121,7.241613 -15.07846,2.182375 0,0 -7.44003,0.0994 -16.07046,4.761638 0,0 -8.43204,5.158413 -15.27687,2.182413 0,0 -8.23364,5.852825 -15.47526,4.563212 0,0 23.70889,1.289613 -9.32485,8.928034 0,0 -7.53924,4.66243 -27.57773,-1.09118 0,0 -21.72487,-4.76164 -30.15692,11.30883 l -3.00332,21.83502 M 27.143473,10.569733 C 22.58026,-5.6991494 10.87461,2.633681 10.87461,2.633681 L 0.55778453,21.481758 c 0,0 -2.08320003,23.212914 19.04647547,21.427314 0,0 -1.388825,9.92005 15.276851,7.836812 0,0 -2.976,5.654438 7.340825,4.563213 0,0 -0.892762,3.174425 0.396813,3.868838 0,0 -1.884775,19.840063 5.75365,23.510513 0,0 1.686388,-24.899338 4.7616,-22.220901 0,0 4.662426,-0.992012 5.356838,-0.297448 0,0 2.3808,8.233474 3.5712,9.324661 0,0 14.930911,14.462287 18.859049,15.724914 0,0 17.396032,10.872453 19.921244,10.732233 0,0 11.92471,6.593663 9.68005,18.378073 l -0.036,13.37055 c 0,0 -9.68009,22.58681 -17.396078,23.56884 0,0 -9.951608,5.30822 -15.110058,5.30822 0,0 -15.475238,1.58722 -17.459263,5.15842 0,0 14.97925,-0.99198 18.054463,1.19043 0,0 -26.089701,8.63044 -27.081713,15.77284 0,0 15.078462,-8.43201 19.8401,-7.63842 0,0 -30.454526,24.8993 -26.486513,31.14894 0,0 5.852825,-10.41604 12.796837,-10.61447 -2.300714,0.57518 -17.876063,39.70002 6.384809,78.6718 0,0 17.125695,20.82625 24.268133,23.20709 7.142438,2.3808 19.840103,26.18888 19.840103,33.33132 0,7.14243 5.55519,25.79213 9.92001,30.95055 4.36483,5.15841 14.68165,20.23687 15.87209,22.61767 1.1904,2.38084 8.72961,7.93603 13.49125,10.71368 4.7616,2.77761 37.29937,4.96 28.96653,-17.65768 -8.33284,-22.61771 -25.99053,-48.509 -25.99053,-48.509 l -17.4294,-55.98649 -7.18911,-74.03453 10.9427,-43.49011 -0.38482,-11.96764"
       id="path1008-0"
       sodipodi:nodetypes="ccccccccccccccccccccccccccccccccccccccccccccccccccccccccccccssssssccccc"
       transform="matrix(0.26458333,0,0,0.26458333,61.493388,88.579274)" />
    <path
       style="fill:none;stroke:#000000;stroke-width:0.264583px;stroke-linecap:butt;stroke-linejoin:miter;stroke-opacity:1"
       d="m 68.675059,91.375851 0.411017,2.966332"
       id="path1082" />
    <path
       style="fill:none;stroke:#000000;stroke-width:0.264583px;stroke-linecap:butt;stroke-linejoin:miter;stroke-opacity:1"
       d="m 71.116004,93.291849 c 0,0 0.12294,2.349478 0.12294,2.757785"
       id="path1084" />
    <path
       style="fill:none;stroke:#000000;stroke-width:0.264583px;stroke-linecap:butt;stroke-linejoin:miter;stroke-opacity:1"
       d="m 73.320712,94.315473 c 0,0 0.14533,2.921945 0.14533,3.070422"
       id="path1086" />
    <path
       style="fill:none;stroke:#000000;stroke-width:0.264583px;stroke-linecap:butt;stroke-linejoin:miter;stroke-opacity:1"
       d="m 76.050367,96.598921 c 0,0 -0.0603,1.380861 -0.0603,1.789171"
       id="path1088" />
    <path
       style="fill:none;stroke:#000000;stroke-width:0.264583px;stroke-linecap:butt;stroke-linejoin:miter;stroke-opacity:1"
       d="m 77.703909,97.622545 c 0,0 0.290567,2.027568 0.327687,2.287398"
       id="path1090" />
    <path
       style="fill:none;stroke:#000000;stroke-width:0.264583px;stroke-linecap:butt;stroke-linejoin:miter;stroke-opacity:1"
       d="m 79.619907,99.538543 c 0,0 0.0449,1.484947 0.0449,1.744777"
       id="path1092" />
    <path
       style="fill:none;stroke:#000000;stroke-width:0.264583px;stroke-linecap:butt;stroke-linejoin:miter;stroke-opacity:1"
       d="m 81.557834,100.80078 c 0,0 -0.0742,0.96508 0.0371,1.41051"
       id="path1094" />
    <path
       style="fill:none;stroke:#000000;stroke-width:0.264583px;stroke-linecap:butt;stroke-linejoin:miter;stroke-opacity:1"
       d="m 66.680321,99.932253 c 0,0 1.589151,0.0519 1.886098,-0.35638"
       id="path1096" />
    <path
       style="fill:none;stroke:#000000;stroke-width:0.264583px;stroke-linecap:butt;stroke-linejoin:miter;stroke-opacity:1"
       d="m 70.722297,102.00574 c 0,0 1.555951,-0.61106 1.890018,-0.53682"
       id="path1098" />
    <path
       style="fill:none;stroke:#000000;stroke-width:0.264583px;stroke-linecap:butt;stroke-linejoin:miter;stroke-opacity:1"
       d="M 72.664545,103.21309 75.2106,102.65671"
       id="path1100" />
    <path
       style="fill:none;stroke:#000000;stroke-width:0.264583px;stroke-linecap:butt;stroke-linejoin:miter;stroke-opacity:1"
       d="m 76.969002,104.49923 c 0,0 1.322424,-0.61761 1.470891,-0.87744"
       id="path1102" />
    <path
       style="fill:none;stroke:#000000;stroke-width:0.264583px;stroke-linecap:butt;stroke-linejoin:miter;stroke-opacity:1"
       d="m 76.969002,104.49923 c 0,0 2.918515,1.49815 5.182729,0.23612"
       id="path1104" />
    <path
       style="fill:none;stroke:#000000;stroke-width:0.264583px;stroke-linecap:butt;stroke-linejoin:miter;stroke-opacity:1"
       d="m 82.151731,104.73535 c 0,0 -3.377768,1.85593 4.157265,1.96728"
       id="path1106" />
    <path
       style="fill:none;stroke:#000000;stroke-width:0.264583px;stroke-linecap:butt;stroke-linejoin:miter;stroke-opacity:1"
       d="m 86.308996,106.70263 c 0,0 5.938937,-3.11796 7.869088,-2.56118"
       id="path1108" />
    <path
       style="fill:none;stroke:#000000;stroke-width:0.264583px;stroke-linecap:butt;stroke-linejoin:miter;stroke-opacity:1"
       d="m 94.178084,104.14145 c 0,0 5.827576,1.11356 6.087406,-2.56118"
       id="path1110" />
    <path
       style="fill:none;stroke:#000000;stroke-width:0.264583px;stroke-linecap:butt;stroke-linejoin:miter;stroke-opacity:1"
       d="m 97.036196,101.61739 c 0,0 2.041507,-0.44543 3.229294,-0.0371"
       id="path1112" />
    <path
       style="fill:none;stroke:#000000;stroke-width:0.264583px;stroke-linecap:butt;stroke-linejoin:miter;stroke-opacity:1"
       d="m 100.26549,101.58029 c 0,0 2.74678,-0.63103 5.64202,1.55896"
       id="path1114" />
    <path
       style="fill:none;stroke:#000000;stroke-width:0.264583px;stroke-linecap:butt;stroke-linejoin:miter;stroke-opacity:1"
       d="m 87.64525,104.17857 c 0,0 2.338455,-1.0022 4.862503,-1.18779"
       id="path1116" />
    <path
       style="fill:none;stroke:#000000;stroke-width:0.264583px;stroke-linecap:butt;stroke-linejoin:miter;stroke-opacity:1"
       d="m 120.19737,113.42309 c 0,0 -1.6324,-0.67014 -1.74376,-1.04132"
       id="path1118" />
    <path
       style="fill:none;stroke:#000000;stroke-width:0.264583px;stroke-linecap:butt;stroke-linejoin:miter;stroke-opacity:1"
       d="m 116.10285,114.63044 c 0,0 -1.50959,-0.20715 -1.65806,-0.72681"
       id="path1120" />
    <path
       style="fill:none;stroke:#000000;stroke-width:0.264583px;stroke-linecap:butt;stroke-linejoin:miter;stroke-opacity:1"
       d="m 113.63563,116.99265 c 0,0 -1.78915,-1.01038 -2.04898,-0.93614"
       id="path1122" />
    <path
       style="fill:none;stroke:#000000;stroke-width:0.264583px;stroke-linecap:butt;stroke-linejoin:miter;stroke-opacity:1"
       d="m 119.60429,108.22449 c 0,0 6.01324,2.30135 5.97612,3.41491"
       id="path1128" />
    <path
       style="fill:none;stroke:#000000;stroke-width:0.264583px;stroke-linecap:butt;stroke-linejoin:miter;stroke-opacity:1"
       d="m 148.80651,109.01363 c 0,0 -1.4745,-0.56642 -1.77146,-0.56642"
       id="path1130" />
    <path
       style="fill:none;stroke:#000000;stroke-width:0.264583px;stroke-linecap:butt;stroke-linejoin:miter;stroke-opacity:1"
       d="m 128.49139,111.58581 c 0,0 -1.87165,-0.68878 -2.91098,0.0536"
       id="path1132" />
  </g>
  <g
     inkscape:groupmode="layer"
     id="g1644"
     inkscape:label="Leftleg"
     style="display:inline">
    <path
       style="display:inline;fill:#361e0c;fill-opacity:0.992157;stroke:#000000;stroke-width:0.264583px;stroke-linecap:butt;stroke-linejoin:miter;stroke-opacity:1"
       d="m 98.978333,246.23152 c 1.154857,-5.03938 1.312337,-13.43835 1.312337,-13.43835 1.46982,-3.67455 -0.15748,-10.39372 -0.15748,-10.39372 -1.627294,-0.62992 -0.52494,-1.78478 -0.52494,-1.78478 1.52232,-3.62206 1.46982,-14.12077 1.46982,-14.12077 0.52494,-1.78478 -1.20735,-13.8583 -1.20735,-13.8583 0,0 1.3392,-1.76919 2.47132,-2.06614 1.13211,-0.29695 3.35286,-1.25676 3.66837,-1.14541 0,0 2.51396,-0.7451 2.94082,-0.54095 0,0 2.36797,-1.94803 3.59669,-1.54935 0,0 2.50736,1.9996 0.76278,7.08484 -0.44542,1.03932 -6.66082,16.55006 -6.2154,18.40599 0,0 -1.63321,11.65522 1.33627,15.07012 0,0 0.74237,3.41491 -1.11356,6.08745 0,0 -1.51304,8.30927 -0.17677,11.64994 0,0 2.23082,1.33435 -1.7587,4.06401 -3.98951,2.72967 -8.661411,4.8819 -9.081358,4.98689 -0.41995,0.10499 -8.346435,2.78216 -9.238819,2.88714 -0.892384,0.10499 -12.33592,1.78479 -13.648251,0.47244 0,0 -1.207344,-0.15748 -2.572165,-0.73491 0,0 -0.10499,-1.04987 -3.517052,-0.36745 0,0 -3.727029,-0.57743 -4.829383,-1.88977 0,0 -1.049864,-0.62992 -3.779517,-0.36745 0,0 1.417322,-2.51969 3.30708,-2.4672 0,0 0.682407,-2.15224 0.997364,-1.99476 l -4.041977,-0.0525 c 0,0 1.102355,-2.51969 3.307073,-2.62468 0,0 4.514423,-6.87664 12.860848,-6.03674 0,0 11.7585,2.57218 12.913354,3.2546"
       id="path1642"
       sodipodi:nodetypes="ccccccsccccccccccccccsssccccc" />
  </g>
  <g
     inkscape:groupmode="layer"
     id="layer12"
     inkscape:label="mainbody2"
     style="display:inline;opacity:1">
    <path
       style="fill:#361e0c;fill-opacity:0.992157;stroke:#000000;stroke-width:0.264583px;stroke-linecap:butt;stroke-linejoin:miter;stroke-opacity:1"
       d="m 97.565383,125.47325 c 0,0 -7.794845,10.17049 -7.646375,11.28404 0,0 -4.008789,10.46744 -0.965077,15.51556 0,0 1.484734,7.94337 3.489122,10.69014 0,0 5.19657,10.83862 6.97825,12.17489 0,0 3.080837,6.49574 3.526257,8.12896 0,0 1.55898,2.56117 -0.89084,3.74897 -1.21555,0.6928 -3.549014,1.74853 -6.569965,-1.18779 0,0 -1.670321,-2.1158 -2.189978,-2.19 -0.519657,-0.0742 2.189978,5.30795 2.189978,5.30795 0,0 0.668177,3.56338 0.742377,3.93457 0,0 9.014878,13.76047 20.927638,-4.08261 2.5197,-1.99476 5.03941,11.81105 5.03941,11.81105 0.0525,6.24673 1.46982,4.51445 1.46982,4.51445 1.36484,-2.99213 2.41472,-2.36221 2.41472,-2.36221 0.41995,4.8294 2.41472,5.87928 2.41472,5.87928 1.57481,-2.72967 1.88978,-0.20998 1.88978,-0.20998 -1.20736,9.39635 2.15225,11.33861 2.15225,11.33861 1.73229,-1.83727 0.94489,-8.66144 0.94489,-8.66144 3.98953,10.44622 2.04726,15.85306 2.04726,15.85306 -1.25986,9.60632 1.57481,10.18374 1.57481,10.18374 5.9843,-2.15223 7.34914,-8.13649 7.34914,-8.13649 5.1444,-9.29136 -4.46198,-25.14442 -4.46198,-25.14442 1.88978,2.99213 5.51186,4.82941 5.51186,4.82941 2.72968,-4.46196 -17.113,-18.47773 -17.113,-18.47773 5.93181,0 7.24415,3.14961 7.24415,3.14961 1.15487,-1.20735 -0.13394,-3.30534 -0.13394,-3.30534 -0.22271,-1.11356 -5.939,-3.04372 -8.16613,-3.04372 -2.22712,0 -5.56781,-2.07864 -6.23595,-2.30135 -0.66814,-0.22271 -4.23154,-2.82101 -4.30578,-3.56338 -0.0742,-0.74237 -2.3756,-4.15728 -3.48916,-5.71626 -1.11356,-1.55898 -3.71186,-2.82101 -6.23592,-4.30575 -2.52406,-1.48474 -2.44982,-5.04812 -2.82101,-6.82981 -0.37118,-1.78169 1.63322,-10.69014 3.11796,-13.58539 1.48474,-2.89525 0.81661,-7.34948 0.81661,-11.06133 0,-3.71185 -10.615897,-14.17929 -10.615897,-14.17929"
       id="path1420"
       sodipodi:nodetypes="ccsccccccccccccccccccccccccssssssssc" />
  </g>
  <g
     inkscape:groupmode="layer"
     id="layer14"
     inkscape:label="Rightleg"
     style="display:inline">
    <path
       style="display:inline;fill:#361e0c;fill-opacity:0.992157;stroke:#351d0b;stroke-width:0.264583px;stroke-linecap:butt;stroke-linejoin:miter;stroke-opacity:1"
       d="m 98.978333,246.23152 c 1.154857,-5.03938 1.312337,-13.43835 1.312337,-13.43835 1.46982,-3.67455 -0.15748,-10.39372 -0.15748,-10.39372 -1.627294,-0.62992 -0.52494,-1.78478 -0.52494,-1.78478 1.52232,-3.62206 1.46982,-14.12077 1.46982,-14.12077 0.52494,-1.78478 -1.20735,-13.8583 -1.20735,-13.8583 0,0 1.3392,-1.76919 2.47132,-2.06614 1.13211,-0.29695 3.35286,-1.25676 3.66837,-1.14541 0,0 2.51396,-0.7451 2.94082,-0.54095 0,0 2.36797,-1.94803 3.59669,-1.54935 0,0 2.50736,1.9996 0.76278,7.08484 -0.44542,1.03932 -6.66082,16.55006 -6.2154,18.40599 0,0 -1.63321,11.65522 1.33627,15.07012 0,0 0.74237,3.41491 -1.11356,6.08745 0,0 -1.51304,8.30927 -0.17677,11.64994 0,0 2.23082,1.33435 -1.7587,4.06401 -3.98951,2.72967 -8.661411,4.8819 -9.081358,4.98689 -0.41995,0.10499 -8.346435,2.78216 -9.238819,2.88714 -0.892384,0.10499 -12.33592,1.78479 -13.648251,0.47244 0,0 -1.207344,-0.15748 -2.572165,-0.73491 0,0 -0.10499,-1.04987 -3.517052,-0.36745 0,0 -3.727029,-0.57743 -4.829383,-1.88977 0,0 -1.049864,-0.62992 -3.779517,-0.36745 0,0 1.417322,-2.51969 3.30708,-2.4672 0,0 0.682407,-2.15224 0.997364,-1.99476 l -4.041977,-0.0525 c 0,0 1.102355,-2.51969 3.307073,-2.62468 0,0 4.514423,-6.87664 12.860848,-6.03674 0,0 11.7585,2.57218 12.913354,3.2546"
       id="path1515-7"
       sodipodi:nodetypes="ccccccsccccccccccccccsssccccc"
       inkscape:export-filename="C:\Users\user\Downloads\c_body.png"
       inkscape:export-xdpi="200"
       inkscape:export-ydpi="200" />
  </g>
  <g
     inkscape:groupmode="layer"
     id="layer7"
     inkscape:label="eye"
     style="display:inline">
    <path
       style="fill:#f4f768;fill-opacity:0.992157;stroke:#000000;stroke-width:0.264583px;stroke-linecap:butt;stroke-linejoin:miter;stroke-opacity:1"
       d="m 83.552695,100.84065 c 0.347347,0.19297 0.99747,-2.032571 1.774947,-1.909781 0,0 4.514416,-2.414688 4.724393,-2.414688 0,0 3.412062,-0.892384 1.732281,2.309708 0,0 -2.467185,2.099731 -2.992122,2.309701 0,0 -2.572165,0.68242 -3.517052,0.47245 0.0201,-0.0105 0.531767,0.0284 -1.722447,-0.76739"
       id="path1179"
       sodipodi:nodetypes="ccccccc" />
  </g>
  <g
     inkscape:groupmode="layer"
     id="layer8"
     inkscape:label="eyeball"
     style="display:inline;opacity:1">
    <path
       style="display:inline;opacity:0.992;fill:#360000;fill-opacity:0.992157;stroke:#360000;stroke-width:0.999999px;stroke-linecap:butt;stroke-linejoin:miter;stroke-opacity:0.992157;filter:url(#filter943)"
       d="m 0.51647364,7.1608186 c 0,0 5.05923786,-9.4240631 7.24165046,-5.8528631 2.1823748,3.5712379 -0.7936252,9.5232755 -0.7936252,9.5232755 0,0 -6.84483786,3.670413 -6.44802526,-3.174425"
       id="path1184"
       transform="matrix(0.26458333,0,0,0.26458333,83.013548,98.781999)" />
  </g>
  <g
     inkscape:groupmode="layer"
     id="layer9"
     inkscape:label="facetail"
     style="display:inline;opacity:1;mix-blend-mode:normal">
    <path
       style="fill:#946b5e;fill-opacity:0.992157;stroke:#000000;stroke-width:0.264583px;stroke-linecap:butt;stroke-linejoin:miter;stroke-opacity:1"
       d="m 96.442299,94.639133 c 0,0 -4.93673,-1.781681 -0.148467,-4.454204 0,0 2.041507,-1.0022 2.338444,-0.853726 0,0 -0.631007,1.150673 -0.11135,1.373386 0,0 6.050314,-1.002202 7.460824,1.410496 0,0 -3.67474,-0.408297 -2.85813,0.1856 0,0 4.93677,2.078618 4.12016,2.338448 0,0 -4.82541,-1.410494 -4.26864,-0.593887 0,0 4.52847,1.670321 3.56339,2.598285 0,0 -3.15508,-1.633211 -4.67694,-0.705257 0,0 -1.22491,0.519657 -1.41051,-0.556767 0,0 -0.44542,2.635395 -2.746757,3.786069 0,0 -1.558971,1.670324 -3.526239,1.039314 0,0 3.600479,-4.454213 2.264215,-5.567757"
       id="path1202"
       sodipodi:nodetypes="cccccccccccccc" />
    <path
       style="fill:none;stroke:#000000;stroke-width:0.264583px;stroke-linecap:butt;stroke-linejoin:miter;stroke-opacity:1"
       d="m 96.442299,94.639133 c 0,0 0.593897,-1.002194 0.11136,-1.299144"
       id="path1284" />
  </g>
  <g
     inkscape:groupmode="layer"
     id="layer5"
     inkscape:label="teeth"
     style="display:inline">
    <path
       style="fill:none;stroke:#000000;stroke-width:0.264583px;stroke-linecap:butt;stroke-linejoin:miter;stroke-opacity:1"
       d="m 72.991715,104.18022 c 0,0 1.784778,0.62992 2.362205,0.26247"
       id="path1135" />
    <path
       style="fill:#fff1de;fill-opacity:0.992157;stroke:#ffedd8;stroke-width:0.264583px;stroke-linecap:butt;stroke-linejoin:miter;stroke-opacity:0.992157"
       d="m 72.769535,104.23672 c -0.0857,-0.0571 -0.23838,6.76792 1.639501,6.19023 0,0 0.14526,-4.85164 1.142644,-5.84902"
       id="path1137"
       sodipodi:nodetypes="ccc" />
  </g>
  <g
     inkscape:groupmode="layer"
     id="layer2"
     inkscape:label="nose1"
     style="display:inline;mix-blend-mode:normal">
    <path
       style="fill:#4a0000;fill-opacity:0.992157;stroke:#240007;stroke-width:0.264583px;stroke-linecap:butt;stroke-linejoin:miter;stroke-opacity:0.992157"
       d="m 64.65617,92.240635 c 0,0 -0.524927,2.860865 -2.913372,1.706021 0,0 -3.333323,-1.915998 -3.91075,-3.175852 0,0 -1.128604,-1.28609 -1.154854,-2.887143 0,0 -0.446197,-1.706041 0.0525,-2.782159 0,0 -1e-5,-1.443573 1.259834,-1.732287 0,0 0.813644,-0.157481 1.417312,0.524934 0,0 1.391084,0.866143 1.837271,1.548559 0,0 2.047238,1.942264 2.440935,3.28085 0,0 1.601041,2.572183 0.971124,3.517077"
       id="path959"
       sodipodi:nodetypes="cccccccccc" />
  </g>
  <g
     inkscape:groupmode="layer"
     id="layer3"
     inkscape:label="nose"
     style="display:inline">
    <path
       style="display:inline;opacity:0.996;fill:#7b7277;fill-opacity:0.992157;stroke:#7c7277;stroke-width:0.999999px;stroke-linecap:butt;stroke-linejoin:miter;stroke-opacity:1;filter:url(#filter904-2)"
       d="m 1.9566403,2.9873459e-4 c 0,0 -2.976,0.99200881541 -1.58721262,4.96002156541 1.38882522,3.9680202 2.18241262,6.2496267 3.07521262,6.8448267 0.8928,0.5952 1.1904,2.87681 2.6784,3.571223 1.488,0.694397 2.2816252,1.587197 3.0752126,2.480009 0.7936254,0.8928 1.6864251,1.587201 2.0832371,2.182408 0.396775,0.595212 1.1904,0.991987 1.884813,1.686399 0.694375,0.694413 0.297449,1.1904 1.488,1.388825 1.1904,0.198426 4.265613,0.793588 3.2736,-2.480012 C 16.935891,17.36038 10.190265,7.5395304 10.190265,7.5395304 L 6.0238655,3.0755076 Z"
       id="path898-0-3"
       transform="matrix(0.26458333,0,0,0.26458333,59.5204,85.315673)" />
  </g>
  <g
     inkscape:groupmode="layer"
     id="layer15"
     inkscape:label="Righthand"
     style="display:inline;opacity:1">
    <path
       style="fill:#361e0c;fill-opacity:0.992157;stroke:#351d0b;stroke-width:0.264583px;stroke-linecap:butt;stroke-linejoin:miter;stroke-opacity:1"
       d="m 95.913372,143.5253 c 0.12617,-0.7052 -1.423511,-1.67533 -1.423511,-1.67533 0,0 -8.271872,-1.54754 -9.062119,-1.19986 0,0 -7.822913,-0.42003 -8.046633,-0.38961 0,0 -3.61819,-0.70255 -3.73393,-0.55748 0,0 0.717577,0.83847 1.451834,1.12042 0,0 1.790189,0.98201 -4.178049,-0.60792 0,0 0.0891,0.74537 0.45787,0.83069 0,0 -1.197254,0.29834 -2.268758,0.11771 l -4.452206,-0.13338 c -0.742024,-0.0222 -3.063872,-0.61168 -3.359579,-0.65768 -0.29571,-0.046 -2.029479,-0.43216 -2.547789,-0.48482 -0.518317,-0.0526 -1.657358,-0.45813 -2.172325,-0.6221 0,0 -4.334656,-1.57813 -6.498784,-1.23447 -2.164118,0.34365 -4.492636,-0.0232 -4.492636,-0.0232 0,0 -4.356453,0.38938 -3.963906,0.92103 0,0 -0.734937,0.98063 0.14661,1.30413 0,0 -0.12307,1.63026 -1.251724,2.11634 0,0 -1.111514,1.15503 -4.301156,1.02234 0,0 -4.978293,0.0737 -5.30776,-0.0848 -4.176566,0.0525 -9.648296,-2.33665 -0.14745,-3.75503 0,0 9.204129,-1.06113 0.36128,-2.14302 0,0 -9.756636,-0.32941 -10.49311,-0.53716 0,0 -6.778914,-1.7999 -0.17233,-4.16431 0,0 10.62998,-0.31285 11.762344,0.31526 0,0 2.764432,-0.5485 0.0378,-1.26149 -2.726625,-0.71297 -12.146,-1.14371 -12.146,-1.14371 0,0 -6.300357,-2.89961 0.196886,-2.85351 6.497234,0.0461 10.225623,0.78909 10.225623,0.78909 0,0 3.985436,-0.40048 -0.785127,-1.06329 0,0 -9.489136,-0.58136 -10.25493,-1.04992 -0.765807,-0.46857 -2.653975,-1.89914 0.229537,-2.704 2.883505,-0.80486 9.35365,-1.09379 9.896847,-0.63189 0,0 4.687452,0.95739 6.165693,3.67542 0,0 4.075796,4.0213 3.943366,4.7229 0,0 2.319358,3.1517 8.337615,3.07205 0,0 10.731707,1.24988 12.123362,0.66028 0.624057,0.2415 11.204707,0.33567 11.204707,0.33567 0,0 5.492168,0.12741 5.497728,-0.0581 0.006,-0.18552 8.032863,-0.39066 8.226163,-0.64481 0,0 11.915451,-0.68944 12.667618,-0.37807 0,0 2.226027,0.19799 4.082237,2.22298 0,0 2.11619,3.06509 0.6492,3.68958 -1.46697,0.62449 -1.89468,2.50557 -3.609144,2.71416 -1.71445,0.20858 -2.995354,0.42889 -2.995354,0.42889"
       id="path1685"
       sodipodi:nodetypes="cccccccccssscscccccccccccscsccssccccccscccssc"
       inkscape:transform-center-x="38.301079"
       inkscape:transform-center-y="-6.5816496" />
  </g>
</svg>
