<?xml version="1.0" encoding="UTF-8" standalone="no"?>
<svg
   xmlns:dc="http://purl.org/dc/elements/1.1/"
   xmlns:cc="http://creativecommons.org/ns#"
   xmlns:rdf="http://www.w3.org/1999/02/22-rdf-syntax-ns#"
   xmlns:svg="http://www.w3.org/2000/svg"
   xmlns="http://www.w3.org/2000/svg"
   xmlns:xlink="http://www.w3.org/1999/xlink"
   xmlns:sodipodi="http://sodipodi.sourceforge.net/DTD/sodipodi-0.dtd"
   xmlns:inkscape="http://www.inkscape.org/namespaces/inkscape"
   width="200mm"
   height="200mm"
   viewBox="0 0 200 200"
   version="1.1"
   id="svg8"
   inkscape:version="1.0.1 (3bc2e813f5, 2020-09-07)"
   sodipodi:docname="Icon.svg"
   inkscape:export-filename="C:\Users\RUBAN\Documents\GitHub\unityProjects\RoadRunner\Assets\Icons\Icons.png"
   inkscape:export-xdpi="200"
   inkscape:export-ydpi="200">
  <title
     id="title833">RoadRunner</title>
  <defs
     id="defs2">
    <linearGradient
       inkscape:collect="always"
       id="linearGradient900">
      <stop
         style="stop-color:#c16800;stop-opacity:1;"
         offset="0"
         id="stop896" />
      <stop
         style="stop-color:#c17600;stop-opacity:0"
         offset="1"
         id="stop898" />
    </linearGradient>
    <filter
       inkscape:collect="always"
       style="color-interpolation-filters:sRGB"
       id="filter1560-8"
       x="-0.00035689748"
       width="1.0007138"
       y="-0.00017539317"
       height="1.0003508">
      <feGaussianBlur
         inkscape:collect="always"
         stdDeviation="0.014210742"
         id="feGaussianBlur1562-5" />
    </filter>
    <filter
       inkscape:collect="always"
       style="color-interpolation-filters:sRGB"
       id="filter943"
       x="-3.7301343e-05"
       width="1.0000746"
       y="-5.1314659e-05"
       height="1.0001026">
      <feGaussianBlur
         inkscape:collect="always"
         stdDeviation="0.00347345"
         id="feGaussianBlur945" />
    </filter>
    <linearGradient
       inkscape:collect="always"
       xlink:href="#linearGradient900"
       id="linearGradient904"
       gradientUnits="userSpaceOnUse"
       x1="23.587412"
       y1="30.762978"
       x2="4561.8384"
       y2="3647.9602" />
  </defs>
  <sodipodi:namedview
     id="base"
     pagecolor="#ffffff"
     bordercolor="#666666"
     borderopacity="1.0"
     inkscape:pageopacity="0.0"
     inkscape:pageshadow="2"
     inkscape:zoom="0.94034751"
     inkscape:cx="423.54031"
     inkscape:cy="433.15568"
     inkscape:document-units="px"
     inkscape:current-layer="layer11"
     inkscape:document-rotation="0"
     showgrid="false"
     inkscape:window-width="1920"
     inkscape:window-height="986"
     inkscape:window-x="-11"
     inkscape:window-y="-11"
     inkscape:window-maximized="1"
     showborder="true" />
  <metadata
     id="metadata5">
    <rdf:RDF>
      <cc:Work
         rdf:about="">
        <dc:format>image/svg+xml</dc:format>
        <dc:type
           rdf:resource="http://purl.org/dc/dcmitype/StillImage" />
        <dc:title>RoadRunner</dc:title>
      </cc:Work>
    </rdf:RDF>
  </metadata>
  <g
     inkscape:groupmode="layer"
     id="layer11"
     inkscape:label="Characters"
     style="display:inline">
    <path
       style="opacity:0.999;fill:#ffffff;fill-opacity:1;stroke:none;stroke-width:0.264583;stroke-opacity:0.996078"
       id="path1524"
       sodipodi:type="arc"
       sodipodi:cx="100"
       sodipodi:cy="100"
       sodipodi:rx="75.828575"
       sodipodi:ry="75.828575"
       sodipodi:start="0"
       sodipodi:end="6.2829584"
       sodipodi:open="true"
       sodipodi:arc-type="arc"
       d="M 175.82858,100 A 75.828575,75.828575 0 0 1 100.0043,175.82858 75.828575,75.828575 0 0 1 24.171425,100.0086 75.828575,75.828575 0 0 1 99.987095,24.171426 75.828575,75.828575 0 0 1 175.82857,99.982794" />
    <g
       id="g1520">
      <path
         id="path1520"
         style="display:inline;opacity:0.999;fill:url(#linearGradient904);fill-opacity:1;stroke:#fb5e04;stroke-width:0.0264583;stroke-miterlimit:4;stroke-dasharray:none;stroke-opacity:0.996078"
         d="m 99.98553,15.244192 a 84.755653,84.755653 0 0 0 -84.74108,84.765368 84.755653,84.755653 0 0 0 84.76072,84.74625 84.755653,84.755653 0 0 0 84.75038,-84.75555 V 99.98063 A 84.755653,84.755653 0 0 0 99.98553,15.244192 Z m 13.95677,29.547034 c 2.10422,-0.01371 1.29362,1.640245 -7.80572,7.403166 0,0 -8.068208,5.272402 -7.668787,5.991365 0,0 5.431827,-2.077008 1.03818,3.275251 0,0 -5.591854,6.470406 -6.151045,6.470406 0,0 1.849284,0.253339 -0.636137,2.795178 0,0 16.917649,-3.191206 1.524971,5.197099 0,0 -3.756476,1.214366 -5.818249,2.598293 0,0 0.310906,2.59834 -1.270724,3.586861 l -1.892391,1.836062 c 0,0 0.3106,2.4853 -1.073319,4.066935 0,0 2.993759,-0.423604 -0.98857,4.82968 l -3.558439,5.366081 c 0,0 9.009298,-8.218848 2.230871,2.287717 0,0 -1.948772,1.89223 -2.202966,1.94872 0,0 -1.744099,3.84909 -2.807581,6.03322 1.096228,0.26676 1.35444,0.67489 1.35444,0.67489 2.460378,-1.24912 3.165416,-1.05512 3.35225,-0.7431 0.103651,0.0687 0.126675,0.19204 0.04806,0.37982 -0.0016,0.006 -0.0052,0.0238 -0.0052,0.0238 0.157582,0.72984 -1.011491,1.6168 -2.427758,2.40605 -0.118655,0.0961 -0.232453,0.18929 -0.361218,0.29146 0,0 -3.671685,2.03359 -4.010608,1.80764 0,0 -4.857739,5.0839 -13.217798,3.44578 0,0 -2.881052,1.12963 -5.592424,-13.50046 0,0 -1.35575,-3.389252 -1.073319,-8.586042 0,0 0.571284,-8.957416 0.900204,-12.270052 -0.317724,-0.114882 -0.550355,-0.204639 -0.550355,-0.204639 -8.64464,1.369446 -6.077148,-7.531838 -6.077148,-7.531838 1.349657,3.285442 4.387117,2.603738 4.656563,2.536277 l 0.01395,-0.04857 c 0.838783,-4.233878 6.352584,-4.835887 6.352584,-4.835879 l 0.199987,-0.02739 c -0.04602,-0.02643 -0.08216,-0.04961 -0.08216,-0.04961 1.517805,-1.497838 2.71663,-0.579292 2.71663,-0.579292 2.656162,-5.432153 -2.616378,-6.070949 -2.616378,-6.070949 -2.576272,0.179739 -2.516642,-1.457791 -2.516642,-1.457791 -9.386432,1.41795 -2.037085,-2.976047 -2.037085,-2.976047 -0.539226,-0.07988 -0.03979,-0.738973 -0.03979,-0.738973 -8.667458,1.01853 -7.569047,-2.016929 -7.569047,-2.016929 5.492051,-5.891485 13.979509,-3.814239 13.979509,-3.814239 -0.419397,-0.559194 0.379821,-1.318265 0.379821,-1.318265 0.136679,-0.04119 0.285639,-0.06063 0.443384,-0.06201 1.524882,-0.01334 3.870048,1.659848 3.870048,1.659848 4.593356,2.995673 3.535185,7.908043 3.535185,7.908043 0.918673,-1.397981 1.158068,-6.091099 1.158069,-6.091099 0.219673,-0.479304 1.138431,-0.199472 1.138431,-0.199472 1.477862,5.871511 0.05994,7.848615 0.05994,7.848615 -1.857311,1.977139 -3.059761,2.760557 -3.059761,2.760557 -3.742254,2.669 -5.041036,5.74797 -5.041036,5.74797 0,0 -0.268329,0.437353 -0.08475,0.42323 0.183584,-0.01413 0.157614,0.274918 0.157614,0.274918 0.182992,1.131289 -0.848701,4.29587 -1.21388,5.368663 1.030996,2.222793 0.363285,3.846795 0.363285,3.846795 -0.987449,0.765548 -2.519885,0.847982 -4.025077,0.667142 -1.757896,2.709349 -6.594734,11.827385 0.07183,22.039998 0,0 6.665552,0.84756 10.393681,2.65514 0,0 2.824182,0.16965 3.897436,0.11317 0,0 0.120667,0.002 0.152963,0.002 0.598933,-1.69588 1.698543,-6.23375 1.163753,-15.860021 0,0 -0.798906,-12.06264 6.151046,-19.491833 0,0 10.385214,-19.731564 20.929987,-24.924062 0,0 8.3571,-3.150542 11.24066,-3.169314 z m -1.30276,25.235151 c 0.11398,-0.0054 0.36724,0.01228 0.56792,0.238744 0,0 0.61665,0.383299 0.81442,0.685231 0,0 0.90708,0.859338 1.08159,1.451592 0,0 0.10522,0.169373 0.21859,0.400492 l 0.0853,-0.156065 c 0,0 0.34334,-0.24379 0.75344,-0.249597 0.4101,-0.0057 0.88739,0.22597 1.15497,1.178224 0,0 1.08159,0.360272 1.08159,0.848011 0,0 0.82596,0.0346 0.9772,0.452686 0,0 0.82634,0.02326 1.21026,1.010271 0,0 0.51172,-0.150661 0.73277,0.453205 0,0 0.82629,-0.09315 0.84956,0.847492 0,0 0.442,-0.162321 0.59325,0.209291 0,0 0.58226,0.557776 0.86196,0.360701 0,0 0.002,0.0038 0.002,0.0041 0.10653,-0.214829 0.55252,-1.055532 1.00252,-0.912606 0,0 2.30359,-1.440135 2.6293,-1.370457 0,0 1.25661,-0.533723 1.53582,-0.464056 0,0 0.26927,-0.05661 0.64699,-0.07648 -0.47209,-0.221276 -1.62428,-0.917919 0.11834,-1.888773 0,0 0.90501,-0.443445 1.03663,-0.377756 0,0 -0.27938,0.509172 -0.0491,0.607716 0,0 2.68156,-0.443757 3.30678,0.623734 0,0 -1.62856,-0.18056 -1.26659,0.08216 0,0 2.18822,0.919605 1.82625,1.034564 0,0 -2.13919,-0.623827 -1.89239,-0.262517 0,0 2.00752,0.739227 1.57974,1.149802 0,0 -1.3987,-0.722693 -2.07325,-0.312126 0,0 -0.2809,0.115742 -0.46923,0.0041 0.033,0.03687 0.0676,0.0713 0.0977,0.112139 0,0 1.81476,1.091427 2.00091,1.11466 0,0 1.23337,1.207648 3.28094,0.3483 0,0 3.32733,-1.160848 6.16603,-0.487309 0,0 7.21295,1.230619 7.28276,1.393198 0,0 4.25824,1.022273 4.0721,1.115176 0,0 0.0931,0.719997 -1.81487,0.836126 0,0 2.09425,0.812667 2.44326,0.650089 0,0 0.34133,0.17826 -0.21498,0.355534 0.26991,0.121634 0.29606,0.288512 -0.9772,0.436149 0,0 -0.44877,-0.03921 -0.76377,-0.06718 -0.10263,0.02479 -0.20697,0.05273 -0.30903,0.07648 -0.0555,0.244475 -0.44202,0.843547 -2.9223,0.551389 -0.0861,0.01259 -0.17323,0.02688 -0.2589,0.03876 0.14167,0.198982 0.22252,0.709694 -3.23701,0.294039 -0.274,0.01164 -0.54556,0.01871 -0.81597,0.02376 -0.0557,0.21123 -0.34396,0.568796 -1.75648,0.12764 0,0 -0.87249,0.0118 -1.88464,0.557591 0,0 -0.98888,0.603665 -1.79162,0.25528 0,0 -0.8304,0.587677 -1.62833,0.552937 0.47882,0.04106 2.11055,0.243713 -1.28002,1.026295 0,0 -0.88437,0.545902 -3.23443,-0.12764 0,0 -2.54785,-0.557271 -3.53674,1.323948 l -0.35243,2.555918 c 0,0 4.70566,4.631229 4.70566,6.273519 0,1.642301 0.29637,3.613285 -0.36174,4.894276 -0.65813,1.280986 -1.54688,5.222686 -1.38234,6.011006 0.16453,0.78831 0.13177,2.36462 1.25056,3.02152 1.11881,0.65693 2.2706,1.21554 2.76418,1.90531 0.49359,0.68976 1.51377,2.20059 1.54667,2.52903 0.0329,0.32847 1.61225,1.47815 1.90841,1.57665 0.29614,0.0985 1.77699,1.01803 2.76418,1.01803 0.98719,0 3.52071,0.854 3.61941,1.34669 0,0 0.57132,0.92825 0.0594,1.46244 0,0 -0.58193,-1.3932 -3.21117,-1.3932 0,0 8.79552,6.20103 7.58558,8.17521 0,0 -1.60561,-0.81295 -2.44326,-2.13682 0,0 4.25792,7.01446 1.97766,11.12542 0,0 -0.60461,2.64752 -3.25717,3.59978 0,0 -1.25659,-0.25536 -0.69815,-4.50566 0,0 0.86093,-2.39215 -0.90744,-7.01405 0,0 0.34876,3.01892 -0.41909,3.83181 0,0 -1.48911,-0.85936 -0.95395,-5.01675 0,0 -0.13962,-1.11471 -0.83767,0.093 0,0 -0.88408,-0.46463 -1.07022,-2.60139 0,0 -0.46525,-0.27844 -1.07022,1.04541 0,0 -0.62834,0.76657 -0.65164,-1.99729 0,0 -1.1166,-6.10862 -2.23346,-5.22604 -0.53389,0.79821 -1.05373,1.44717 -1.55856,1.98024 -5.3e-4,0.002 -0.001,0.004 -0.002,0.006 -0.0143,0.0589 -0.0299,0.11867 -0.047,0.17984 -0.0283,0.10394 -0.0594,0.20998 -0.0977,0.32142 -0.074,0.17245 -0.508,1.24512 -1.01079,2.56212 -0.67038,1.756 -1.46356,3.94614 -1.69085,5.01468 -0.0284,0.13357 -0.048,0.2492 -0.0574,0.34468 v 5.3e-4 c -0.005,0.0475 -0.007,0.0902 -0.006,0.12713 v 5.3e-4 c 5.3e-4,0.0368 0.004,0.0685 0.01,0.0941 0,0 -0.0452,0.32183 -0.0925,0.82889 v 5.3e-4 c -0.002,0.0178 -0.003,0.0437 -0.005,0.062 -0.0339,0.37156 -0.0682,0.82714 -0.0868,1.33222 -0.0391,1.06024 -0.0101,2.30425 0.23307,3.2675 0.0405,0.16053 0.087,0.31299 0.14004,0.45578 0.0266,0.0716 0.0548,0.14041 0.0848,0.20671 0.0299,0.0662 0.0616,0.12927 0.0951,0.18965 v 5.3e-4 c 0.0669,0.12061 0.14159,0.22916 0.22376,0.3235 0,0 0.0821,0.37776 0.0615,0.9033 -0.005,0.13138 -0.0168,0.2718 -0.0377,0.41806 v 5.3e-4 c -0.0105,0.073 -0.0233,0.14739 -0.0388,0.22273 v 5.3e-4 c -0.0155,0.0754 -0.0336,0.15159 -0.0548,0.22841 v 5.3e-4 c -0.0848,0.30793 -0.2186,0.6237 -0.42427,0.91932 0,0 -0.0942,0.51708 -0.18086,1.24127 -0.14442,1.20698 -0.26739,2.98965 0.10283,3.91345 0,0 0.0152,0.009 0.0388,0.0279 h 5.3e-4 c 0.059,0.0463 0.16871,0.15031 0.21497,0.31316 v 5.3e-4 c 0.009,0.0325 0.0159,0.0672 0.0191,0.10438 v 5.3e-4 c 0.003,0.0372 0.003,0.077 -0.002,0.11886 -0.0182,0.16818 -0.10645,0.37427 -0.32298,0.61857 -0.0542,0.0611 -0.11642,0.12421 -0.18759,0.19017 -0.0326,0.0302 -0.0741,0.0628 -0.11058,0.094 -0.12252,0.1049 -0.26014,0.21388 -0.43047,0.33021 -0.44209,0.30194 -0.90305,0.58769 -1.34875,0.84749 -1.33718,0.77952 -2.53672,1.32374 -2.67633,1.35857 -0.0931,0.0232 -1.01826,0.33097 -1.96939,0.63873 -0.71314,0.23075 -1.44104,0.46182 -1.84381,0.57257 -0.13429,0.0369 -0.23271,0.0603 -0.28215,0.0661 -0.0989,0.0116 -0.49022,0.0667 -1.03043,0.13384 -1.08052,0.13427 -2.75713,0.31654 -3.884,0.29404 -0.26451,-0.005 -0.49455,-0.0226 -0.68368,-0.0538 -0.0123,-0.002 -0.0284,-0.003 -0.0403,-0.005 h -5.3e-4 c -0.0255,-0.005 -0.042,-0.0119 -0.0656,-0.017 -0.067,-0.0147 -0.13437,-0.0295 -0.18552,-0.0491 -0.0692,-0.0264 -0.12281,-0.0572 -0.15916,-0.0935 0,0 -0.13424,-0.018 -0.34313,-0.0672 h -5.3e-4 c -0.20941,-0.0494 -0.49437,-0.13065 -0.79685,-0.25838 0,0 -0.003,-0.0289 -0.031,-0.0677 -0.0139,-0.0193 -0.034,-0.0412 -0.063,-0.0631 h -5.3e-4 c -0.0146,-0.0109 -0.0389,-0.0214 -0.0584,-0.032 -0.0194,-0.0106 -0.034,-0.0218 -0.0589,-0.0315 h -5.3e-4 c -0.20068,-0.0784 -0.58994,-0.11893 -1.34617,0.032 0,0 -0.10363,-0.0162 -0.26561,-0.0491 h -5.3e-4 c -0.32502,-0.0661 -0.88711,-0.20014 -1.33429,-0.41134 -0.11166,-0.0527 -0.21613,-0.11066 -0.30799,-0.17312 h -5.3e-4 c -0.0459,-0.0312 -0.0883,-0.064 -0.12712,-0.0977 h -5.3e-4 c -0.0389,-0.0338 -0.0739,-0.0686 -0.10439,-0.1049 0,0 -0.18167,-0.10897 -0.6134,-0.16227 -0.17269,-0.0213 -0.3853,-0.0339 -0.64234,-0.0269 -0.12852,0.003 -0.26837,0.0119 -0.41961,0.0264 0,0 0.0882,-0.15669 0.24288,-0.35139 0.25768,-0.32458 0.69966,-0.75453 1.22318,-0.74001 0,0 0.0565,-0.16983 0.12661,-0.35502 0.0139,-0.0373 0.0142,-0.0415 0.0294,-0.0801 0.0368,-0.0926 0.0751,-0.17863 0.11473,-0.25631 0.01,-0.0197 0.0195,-0.0385 0.0294,-0.0558 0.01,-0.0169 0.0185,-0.0311 0.0279,-0.0455 0.0134,-0.0204 0.0261,-0.0373 0.0388,-0.0512 0.0156,-0.0173 0.0311,-0.0343 0.045,-0.0393 l -1.76165,-0.0227 c 0,0 0.0687,-0.15662 0.20619,-0.35502 0.0917,-0.13235 0.21405,-0.28334 0.3669,-0.41858 0.0381,-0.0337 0.078,-0.0664 0.11989,-0.0977 0.16785,-0.12515 0.36649,-0.22631 0.59532,-0.26923 0.0573,-0.0107 0.11669,-0.0178 0.17776,-0.0207 0,0 0.12517,-0.19031 0.37052,-0.46974 0.0614,-0.0699 0.1303,-0.14526 0.20671,-0.2248 0.0762,-0.0794 0.16011,-0.16277 0.25115,-0.24856 0.0911,-0.0858 0.18937,-0.17449 0.29507,-0.26355 0.10581,-0.0891 0.21918,-0.17897 0.33951,-0.2682 0.12034,-0.0893 0.24769,-0.17782 0.38241,-0.26406 0.26942,-0.17251 0.56744,-0.33602 0.89349,-0.4775 0.24453,-0.1061 0.50502,-0.19971 0.78083,-0.27595 0.18371,-0.0508 0.37465,-0.094 0.57205,-0.12764 0.0988,-0.0168 0.1996,-0.031 0.30179,-0.0429 0.20423,-0.0238 0.41535,-0.0374 0.63304,-0.0393 0.10894,-0.001 0.21948,0.001 0.33176,0.006 0.11246,0.005 0.22631,0.0132 0.3421,0.0248 0,0 0.32552,0.071 0.82217,0.18242 1.24134,0.27847 3.55101,0.80883 4.50877,1.10897 h 5.3e-4 c 0.19122,0.0599 0.32881,0.11112 0.39274,0.14883 l 4.8395,0.65009 c 0.19199,-0.83627 0.32202,-1.88134 0.40927,-2.86132 0.0291,-0.32662 0.053,-0.64581 0.0734,-0.94775 0.0814,-1.20773 0.0992,-2.13682 0.0992,-2.13682 0.0815,-0.20332 0.14134,-0.42749 0.18397,-0.66456 0.003,-0.0167 0.004,-0.0344 0.007,-0.0512 0.0358,-0.21267 0.0592,-0.43412 0.0708,-0.65991 5.3e-4,-0.01 0.002,-0.0188 0.002,-0.0284 v -5.3e-4 c 0.006,-0.12683 0.008,-0.25454 0.008,-0.3824 -5.2e-4,-0.63957 -0.0712,-1.27841 -0.14831,-1.78543 -0.0308,-0.20277 -0.0627,-0.38434 -0.0915,-0.5364 -0.0575,-0.30411 -0.10232,-0.48989 -0.10232,-0.48989 -0.0451,-0.0174 -0.0854,-0.0357 -0.12144,-0.0548 -0.0721,-0.0381 -0.12704,-0.079 -0.16795,-0.12144 -0.0409,-0.0425 -0.0679,-0.0863 -0.0842,-0.13022 -0.041,-0.10997 -0.0157,-0.21979 0.0243,-0.30696 0.0478,-0.1045 0.11627,-0.17622 0.11627,-0.17622 0.16869,-0.40064 0.29382,-0.99125 0.38654,-1.65209 0.0927,-0.66085 0.15302,-1.39194 0.19223,-2.07274 0.0393,-0.6808 0.0578,-1.31147 0.0661,-1.77199 0.008,-0.46052 0.007,-0.75086 0.007,-0.75086 0.0131,-0.0444 0.0224,-0.10745 0.0294,-0.1788 0.001,-0.0143 0.003,-0.0281 0.004,-0.0434 0.003,-0.0392 0.004,-0.0889 0.005,-0.13436 0.003,-0.0691 0.004,-0.14272 0.004,-0.2248 -5.3e-4,-0.0587 -0.002,-0.12038 -0.004,-0.185 -0.002,-0.0811 -0.006,-0.16745 -0.0103,-0.25683 -0.003,-0.0708 -0.007,-0.14019 -0.0114,-0.21549 -0.003,-0.0498 -0.007,-0.10448 -0.0109,-0.15606 -0.0116,-0.16981 -0.0284,-0.35681 -0.0444,-0.54157 -0.0678,-0.76544 -0.16564,-1.6223 -0.25942,-2.37247 -7.9e-4,-0.006 -0.001,-0.0113 -0.002,-0.0171 -1.16867,-0.66312 -1.8495,-1.69706 -1.8495,-1.69706 -0.0329,-0.16423 -0.32918,-1.74098 -0.32918,-1.74098 0,0 -0.87393,-1.73541 -0.98289,-2.21743 -0.0806,-0.10428 -0.17639,-0.23487 -0.23926,-0.30903 -0.51189,-0.60386 -1.16323,-2.78742 -1.16323,-3.62355 0,-0.83612 -1.48935,-3.62286 -2.32699,-3.90157 -0.83765,-0.27865 -2.84582,-2.71663 -2.84582,-2.71663 -2.40708,-3.85962 -1.47221,-7.721029 -0.96325,-8.863019 -10e-4,-2.56e-4 -0.002,-2.64e-4 -0.004,-5.29e-4 -0.17224,-0.03163 -0.24513,-0.04443 -0.44906,-0.07803 -0.11284,0.08419 -0.21462,0.181432 -0.30954,0.28112 5.2e-4,5.29e-4 10e-4,5.29e-4 0.002,0.0011 0.0306,0.02141 0.0621,0.04144 0.094,0.06046 0.009,0.0054 0.0177,0.01143 0.0269,0.01654 0.0407,0.02268 0.0825,0.04298 0.12403,0.05891 0,0 0.0382,0.02223 0.0698,0.04806 0.008,0.0062 0.01,0.0079 0.0165,0.01447 0.01,0.0094 0.0148,0.01799 0.0181,0.02687 0.005,0.01349 0.003,0.02529 -0.0176,0.03307 l -5.3e-4,5.29e-4 c -5.3e-4,1.62e-4 -10e-4,-1.59e-4 -0.002,0 -0.0103,0.0036 -0.0319,0.0038 -0.0506,0.0052 -0.024,0.0019 -0.058,7.93e-4 -0.0987,-0.0021 -0.0228,-0.0016 -0.0435,-0.0028 -0.0724,-0.0062 -0.0763,-0.0091 -0.16855,-0.02323 -0.29456,-0.04754 -0.20837,0.257807 -0.34003,0.483692 -0.34003,0.483692 -0.079,-0.124261 -0.0349,-0.314788 0.0817,-0.540019 -0.13562,-0.02951 -0.28457,-0.06341 -0.46871,-0.108522 -0.1963,-0.0476 -0.42082,-0.104225 -0.69349,-0.176734 0,0 0.0396,0.330198 0.20309,0.367938 0,0 -0.29864,0.07407 -0.64803,0.07752 -0.0584,5.29e-4 -0.11814,-0.0011 -0.17828,-0.0052 -0.06,-0.004 -0.11995,-0.01066 -0.17932,-0.02066 l -1.97352,-0.05891 c -0.16446,-0.005 -0.50428,-0.07264 -0.81907,-0.141594 -0.31479,-0.06895 -0.6047,-0.139171 -0.67024,-0.149344 -0.13108,-0.02029 -0.89939,-0.191159 -1.12913,-0.214459 -0.11488,-0.01159 -0.29859,-0.06248 -0.48215,-0.119372 -0.18347,-0.05684 -0.36697,-0.119787 -0.4811,-0.156064 0,0 -0.1196,-0.04337 -0.31471,-0.106453 -0.0976,-0.03154 -0.21421,-0.06821 -0.34365,-0.106452 -0.25902,-0.07652 -0.57034,-0.160385 -0.88935,-0.227378 -0.15936,-0.03349 -0.32051,-0.06271 -0.47801,-0.08475 -0.15751,-0.02204 -0.31093,-0.0368 -0.45527,-0.04134 h -5.3e-4 c -0.14414,-0.0045 -0.27918,0.0011 -0.39894,0.02016 -0.11991,0.019 -0.2412,0.0333 -0.36122,0.04341 -0.23987,0.02019 -0.47592,0.02432 -0.6904,0.02016 -0.32194,-0.0063 -0.59563,-0.03138 -0.76326,-0.05064 -0.11175,-0.01283 -0.17622,-0.02326 -0.17622,-0.02326 0,0 -0.43386,0.04099 -0.86868,0.105936 -0.37337,0.05577 -0.74609,0.128487 -0.86299,0.216525 -0.0362,0.02723 -0.0471,0.05586 -0.0253,0.08526 0,0 -0.0205,0.02685 -0.045,0.06977 v 5.29e-4 c -0.0244,0.04288 -0.053,0.101325 -0.0692,0.16433 v 5.29e-4 c -0.008,0.03144 -0.0134,0.06439 -0.0134,0.09663 -1e-5,0.06482 0.0205,0.128193 0.0775,0.179319 0.0285,0.0255 0.0659,0.04825 0.11472,0.06614 0,0 -0.008,0.08956 -0.0372,0.212389 -0.002,0.0096 -0.004,0.01683 -0.006,0.02687 v 5.29e-4 c -0.012,0.04592 -0.027,0.09564 -0.046,0.14728 v 5.29e-4 c -0.019,0.05167 -0.0422,0.104992 -0.0698,0.157612 v 5.3e-4 c -0.0552,0.105343 -0.12927,0.207838 -0.2279,0.288353 -0.0248,0.02024 -0.0506,0.03916 -0.0786,0.05633 -0.028,0.0172 -0.0575,0.03249 -0.0889,0.04599 0,0 -0.12324,0.127667 -0.42323,0.248047 -0.2999,0.120422 -0.77673,0.233476 -1.48363,0.20412 0,0 -1.6885,0.02461 -2.20917,-0.01601 h -5.3e-4 c -0.0743,-0.0058 -0.12437,-0.01294 -0.14262,-0.0217 -0.11554,0.0013 -0.23366,-0.0011 -0.35192,-0.0078 h -5.3e-4 c -0.11826,-0.0066 -0.237031,-0.01709 -0.354498,-0.03101 h -5.29e-4 c -0.117462,-0.01394 -0.233588,-0.03168 -0.346747,-0.05219 h -5.29e-4 c -0.226632,-0.0411 -0.440664,-0.09455 -0.628902,-0.157612 -0.09412,-0.03153 -0.181726,-0.06537 -0.260966,-0.101285 -0.15848,-0.07184 -0.283898,-0.151728 -0.361736,-0.236678 -0.03906,-0.04264 -0.06616,-0.08644 -0.07958,-0.13126 -0.0067,-0.02233 -0.01011,-0.04445 -0.0098,-0.06718 5.29e-4,-0.04556 0.01561,-0.09187 0.04703,-0.138493 0.01564,-0.02326 0.03545,-0.04637 0.05943,-0.06976 0.04797,-0.04679 0.112911,-0.09381 0.196887,-0.14056 0.167939,-0.09349 0.41157,-0.186002 0.744656,-0.27492 0.333095,-0.08886 0.755687,-0.174252 1.282094,-0.252696 0,0 2.29467,-0.263906 1.78852,-0.597897 -0.0844,-0.05567 -0.24648,-0.113432 -0.51005,-0.172083 -0.26356,-0.05865 -0.62833,-0.118448 -1.11828,-0.178284 0,0 -1.08099,-0.03631 -2.202961,-0.08423 -1.121912,-0.04781 -2.284693,-0.107002 -2.447911,-0.152961 0,0 -0.187804,-0.0501 -0.423747,-0.141075 -0.176854,-0.06821 -0.380811,-0.159856 -0.552938,-0.270786 h -5.3e-4 c -0.114803,-0.07403 -0.215171,-0.156643 -0.28422,-0.247015 -0.06905,-0.09037 -0.106704,-0.188423 -0.09508,-0.293004 0.0087,-0.07844 0.045,-0.160602 0.116272,-0.245981 0.0571,-0.0684 0.139706,-0.139023 0.245463,-0.211354 0.08405,-0.05751 0.1951,-0.116486 0.314193,-0.176218 0.167485,-0.08397 0.358281,-0.169532 0.604098,-0.25735 0,0 2.649889,-0.0778 4.186821,5.29e-4 h 5.3e-4 c 0.25591,0.01304 0.48111,0.03043 0.65784,0.05323 h 5.3e-4 c 0.0882,0.01138 0.1644,0.02402 0.22635,0.03824 h 5.3e-4 c 0.0618,0.01421 0.10981,0.03023 0.14107,0.04754 0,0 1.22518,-0.242655 0.0165,-0.558107 -0.15107,-0.03943 -0.34843,-0.07679 -0.57826,-0.112136 -0.45965,-0.0708 -1.04894,-0.133426 -1.656233,-0.186552 -0.910936,-0.07969 -1.862439,-0.138422 -2.477884,-0.172601 -0.410307,-0.02281 -0.671277,-0.03462 -0.671277,-0.03462 0,0 -0.174855,-0.08035 -0.39119,-0.199988 l -5.29e-4,-5.29e-4 c -0.16247,-0.08991 -0.348636,-0.201843 -0.502812,-0.31936 l -5.29e-4,-5.3e-4 c -0.05125,-0.03907 -0.09893,-0.07872 -0.141077,-0.11834 l -5.29e-4,-5.29e-4 c -0.0844,-0.07941 -0.146394,-0.15848 -0.169499,-0.232545 v -5.29e-4 c -8.2e-4,-0.0027 -8.2e-4,-0.0051 -0.0016,-0.0078 -0.0094,-0.03425 -0.01091,-0.06733 -0.0016,-0.0987 0.005,-0.01677 0.01323,-0.03334 0.02429,-0.04909 v -5.29e-4 c 0.01121,-0.01588 0.02551,-0.0308 0.04341,-0.04548 0.107387,-0.08805 0.339687,-0.152939 0.752926,-0.177768 0.137744,-0.0082 0.295941,-0.01212 0.47594,-0.01085 0.719979,0.0051 1.362959,0.02936 1.922878,0.06305 h 5.29e-4 c 1.679411,0.101068 2.609136,0.285771 2.609146,0.285771 0,0 0.55792,-0.056 0.67127,-0.157096 0.025,-0.02249 0.0285,-0.04706 -0.002,-0.0739 -0.03,-0.02683 -0.0933,-0.05588 -0.2005,-0.08681 -0.16082,-0.04642 -0.42104,-0.09746 -0.81752,-0.152448 0,0 -1.051465,-0.06427 -2.145607,-0.154511 -0.273483,-0.02257 -0.54933,-0.04663 -0.812352,-0.07183 -0.263263,-0.02522 -0.513147,-0.05138 -0.734322,-0.07803 -0.221025,-0.02664 -0.412679,-0.05374 -0.560173,-0.08061 -0.147495,-0.02687 -0.250574,-0.05367 -0.293005,-0.07958 -0.08486,-0.05183 -0.200736,-0.130225 -0.306957,-0.224276 -0.05311,-0.04703 -0.10362,-0.09794 -0.146761,-0.151413 -0.04314,-0.05346 -0.07883,-0.109752 -0.101803,-0.166915 -0.06889,-0.171416 -0.02411,-0.353166 0.271819,-0.508495 0.04939,-0.0259 0.106018,-0.0512 0.170015,-0.07545 0.064,-0.02424 0.135607,-0.04751 0.21549,-0.06976 0.31953,-0.08903 0.738262,-0.163856 1.190625,-0.222726 0.452364,-0.05887 0.938226,-0.101661 1.391645,-0.127121 0.453419,-0.02545 0.874647,-0.03341 1.197343,-0.02222 0.322699,0.01119 0.547055,0.04141 0.607193,0.0925 0,0 0.29217,0.05952 0.69195,0.197402 0.33315,0.114901 0.74096,0.284327 1.11673,0.518833 0.0752,0.0469 0.14892,0.0961 0.22066,0.148312 l 5.3e-4,5.29e-4 c 0.14324,0.104299 0.27803,0.219215 0.39739,0.345715 l 5.3e-4,5.29e-4 c 0.11952,0.126675 0.2235,0.264692 0.3054,0.414959 0,0 0.11267,0.11102 0.28112,0.282671 0.25265,0.257429 0.63055,0.651078 0.93948,1.009242 0.30897,0.358225 0.54911,0.680958 0.5271,0.797367 0,0 0.19654,0.266983 0.64131,0.564306 h 5.2e-4 c 0.19056,0.127355 0.42654,0.260432 0.71211,0.380339 0.0591,0.02484 0.12417,0.04775 0.18758,0.07131 0.0388,0.01439 0.0743,0.0301 0.11472,0.04393 h 5.3e-4 c 0.0322,0.01103 0.0685,0.0204 0.10181,0.03101 0.51592,0.164558 1.15443,0.279062 1.93735,0.268717 0,0 0.29738,0.0344 0.75292,0.08217 0.68327,0.07164 1.72254,0.173027 2.64893,0.232026 h 5.3e-4 c 0.46327,0.0295 0.89781,0.04824 1.24592,0.04754 0.23208,-5.29e-4 0.42582,-0.0094 0.56328,-0.02997 0.0687,-0.01027 0.12319,-0.02349 0.16174,-0.03979 0.0173,0.0067 0.0517,0.01294 0.10129,0.01913 0.14843,0.01857 0.43216,0.03487 0.79168,0.04909 0.47859,0.01892 1.09042,0.03413 1.69395,0.04599 1.20726,0.02379 2.3797,0.0341 2.3797,0.0341 0,0 0.39677,0.0055 0.65319,0.0098 0.32,0.0039 0.70156,0.0075 1.0356,0.0052 0.36695,-0.809255 3.13779,-1.72444 3.13779,-1.72444 -0.36065,-0.255485 -2.1177,-0.13901 -2.1177,-0.13901 0.23268,-0.41806 2.04794,-0.604099 2.04794,-0.604099 0.60497,0 1.77198,-0.621149 1.77198,-0.621149 0.90492,-0.114962 2.04019,-2.759522 2.04019,-2.759522 l 0.004,-1.564762 c 0.0426,-0.222983 0.0381,-0.428548 0.007,-0.619085 l -1.35237,-1.593183 c -0.60409,-0.246746 -2.12597,-1.195793 -2.12597,-1.195793 -0.46068,-0.147809 -2.21175,-1.840714 -2.21175,-1.840714 -0.13961,-0.127741 -0.41858,-1.091406 -0.41858,-1.091406 -0.0814,-0.08131 -0.62839,0.03462 -0.62839,0.03462 -0.36065,-0.31355 -0.55862,2.601391 -0.55862,2.601391 -0.89581,-0.42968 -0.67438,-2.752288 -0.67438,-2.752288 -0.15123,-0.08129 -0.0465,-0.453202 -0.0465,-0.453202 -1.20994,0.127743 -0.86094,-0.533818 -0.86094,-0.533818 -1.9545,0.243874 -1.79162,-0.917774 -1.79162,-0.917774 -2.47803,0.209032 -2.23397,-2.508379 -2.23397,-2.508371 l 0.0708,-0.129194 c -0.009,-0.0041 -0.0168,-0.006 -0.0258,-0.01035 0,0 -1.47727,-0.848185 -1.73322,-1.405599 0,0 -0.50048,-0.56906 -0.51212,-1.27744 0,0 -0.19731,-0.754801 0.0238,-1.230934 0,0 -2.6e-4,-0.63862 0.55811,-0.76636 0,0 0.0225,-0.0044 0.0605,-0.0062 z m 18.76061,5.321123 c 0,0 -0.0144,0.05684 -0.0196,0.08113 0.0218,0.01797 0.0441,0.03505 0.0651,0.05426 -0.0198,-0.0373 -0.0361,-0.08117 -0.0455,-0.135392 z m -9.02064,17.010329 c -0.51407,0.02506 -1.54433,0.545481 -1.9792,0.776182 0.22851,-0.0036 0.41965,-0.0099 0.50642,-0.02273 0.003,-5.29e-4 0.006,-5.29e-4 0.009,-0.0011 0.0262,-0.0044 0.0422,-0.0095 0.0424,-0.01551 2.2e-4,-0.006 0.0243,-0.01198 0.06,-0.0181 0.0352,-0.006 0.0967,-0.01246 0.16123,-0.0186 0.004,-2.65e-4 0.0106,-0.0011 0.015,-0.0016 0.13123,-0.01222 0.32646,-0.02453 0.54001,-0.03721 0.43298,-0.382747 0.76378,-0.656289 0.76378,-0.656289 -0.0349,-0.0058 -0.0747,-0.0073 -0.11834,-0.0052 z m -2.7745,2.591575 c -0.0488,-0.0024 -0.0794,2.44e-4 -0.0858,0.0083 0,0 0.0684,0.07596 0.16433,0.166397 2.7e-4,2.64e-4 5.3e-4,5.29e-4 0.001,0.0011 0.0361,-0.05018 0.0799,-0.103039 0.12041,-0.15503 -0.0807,-0.01037 -0.15033,-0.01826 -0.19999,-0.02066 z m -49.092099,23.059576 -0.564823,1.74924 2.340425,-1.73426 -1.626774,2.23397 c 0,0 -0.09515,-0.0116 -0.132808,-0.0171 l -0.599963,0.82269 3.09025,-1.57406 -0.660941,1.35598 2.332674,-1.14825 -0.848527,1.49397 0.246496,-0.0749 0.144177,-0.13074 -0.06718,0.10697 2.343526,-0.71262 -1.080037,1.44435 2.859774,-0.54311 -1.386479,1.23971 2.916618,-0.36173 -2.5554,1.14256 c 0,0 -0.07289,-0.0541 -0.105936,-0.0796 l -0.942062,0.42013 3.484025,0.14211 -1.268139,0.85215 2.609659,0.14211 -1.501717,0.88108 0.251148,0.0548 0.192753,-0.0429 -0.113171,0.0605 2.395202,0.52399 -1.676383,0.72451 2.755387,0.92346 -1.837097,0.39791 2.711462,1.10794 -2.798795,-0.2558 c 0,0 -0.03556,-0.0822 -0.05116,-0.12041 l -1.031462,-0.0956 2.944523,1.82056 -1.535823,0.12041 2.186947,1.39475 -1.752348,0.031 0.189652,0.17002 0.189136,0.0568 -0.129191,-0.003 1.805574,1.62109 -1.823661,-0.18914 1.912028,2.14199 -1.794722,-0.55036 1.779736,2.28049 -2.292883,-1.58492 c 0,0 0.01145,-0.0888 0.01757,-0.12971 l -0.844393,-0.58498 1.615922,3.01171 -1.391647,-0.64441 1.178223,2.27325 -1.53324,-0.82682 0.077,0.24081 0.134359,0.14056 -0.110071,-0.0656 0.731222,2.28358 -1.481564,-1.05265 0.556556,2.78691 -1.271757,-1.35134 0.371036,2.84221 -1.172021,-2.48978 c 0,0 0.05511,-0.0712 0.08113,-0.10335 l -0.430981,-0.91829 -0.145728,3.39514 -0.874365,-1.23558 -0.146244,2.54248 -0.903821,-1.46296 -0.05633,0.24495 0.04393,0.18758 -0.06201,-0.11007 -0.537952,2.33423 -0.743107,-1.63401 -0.947746,2.6851 -0.408244,-1.79007 -1.136881,2.64222 0.262516,-2.72748 c 0,0 0.08816,-0.0365 0.123507,-0.0501 l 0.09767,-1.00459 -1.868103,2.86908 -0.123506,-1.49655 -1.430921,2.13113 -0.03204,-1.70739 -0.175183,0.18501 -0.05788,0.18396 0.0031,-0.12557 -1.663465,1.75907 0.194304,-1.77716 -2.198316,1.86346 0.565341,-1.74874 -2.340943,1.73427 1.626774,-2.23449 c 0,0 0.09515,0.0116 0.132809,0.017 l 0.60048,-0.82269 -3.090251,1.57458 0.660942,-1.35599 -2.332675,1.14825 0.848528,-1.49448 -0.247014,0.0754 -0.144177,0.13023 0.06666,-0.10697 -2.342493,0.71262 1.080037,-1.44384 -2.859773,0.5426 1.386478,-1.2392 -2.916618,0.36122 2.554883,-1.14205 c 0,0 0.07659,0.0565 0.106454,0.0796 l 0.942061,-0.42013 -3.484542,-0.14211 1.268657,-0.85266 -2.60966,-0.14211 1.501717,-0.88057 -0.251147,-0.0548 -0.19327,0.0429 0.113688,-0.0605 -2.39572,-0.52452 1.676901,-0.7245 -2.755388,-0.92346 1.836581,-0.39739 -2.711463,-1.10846 2.799313,0.2558 c 0,0 0.03545,0.0825 0.05116,0.12092 h 5.29e-4 l 1.030428,0.0951 -2.944006,-1.82056 1.535307,-0.1204 -2.186946,-1.39423 1.752347,-0.0315 -0.189135,-0.17001 -5.3e-4,-5.3e-4 -0.188619,-0.0563 0.128675,0.003 -1.805058,-1.62109 1.823661,0.18965 -1.912545,-2.14251 1.79524,0.55088 -1.779737,-2.281 2.292367,1.58543 c 0,0 -0.01149,0.0886 -0.01757,0.12919 l 0.844393,0.58498 -1.615405,-3.01119 1.391646,0.64389 -1.17874,-2.27325 1.533757,0.82683 -0.077,-0.23978 -0.134359,-0.14108 0.110071,0.0656 -0.731738,-2.28358 1.48208,1.05265 -0.557072,-2.78691 1.272274,1.35082 -0.371037,-2.8422 1.172021,2.49028 c 0,0 -0.0555,0.0711 -0.08165,0.10336 l 0.430981,0.91777 0.145728,-3.39514 0.874881,1.2361 0.145728,-2.543 0.903821,1.46296 0.05684,-0.24598 -0.04393,-0.18655 0.0615,0.10956 0.537951,-2.3332 0.743624,1.6335 0.947229,-2.68511 0.408244,1.79007 1.137398,-2.64221 -0.262516,2.72748 c 0,0 -0.08843,0.0364 -0.124023,0.0501 l -0.09767,1.00459 1.86862,-2.86907 0.123507,1.49655 1.43092,-2.13114 0.03204,1.70739 0.174666,-0.18449 0.05788,-0.18396 -0.0031,0.12557 1.663981,-1.75907 -0.19482,1.77664 z m -1.04128,2.15594 c -0.133605,-0.003 -0.285498,-10e-4 -0.436149,0.001 l -0.15813,1.11207 1.235067,-1.08004 c -0.180545,-0.0146 -0.386592,-0.0276 -0.640788,-0.0331 z m -0.815454,0.0139 c -0.545597,0.0248 -1.162769,0.0883 -1.823661,0.22634 l -0.04496,1.87586 c 0.0076,-0.004 0.01515,-0.01 0.02274,-0.0139 l 0.781348,-1.82417 0.124023,1.06195 z m -1.845882,2.08824 -0.02377,0.0563 0.001,-0.0424 c -0.312376,0.1823 -0.62527,0.38515 -0.938444,0.61908 h -5.29e-4 l 0.772563,-2.4505 c -1.927486,0.44396 -4.116633,1.52444 -5.542814,4.00596 l 0.0078,0.0605 -0.02067,-0.0372 c -0.177064,0.31017 -0.344334,0.6379 -0.495577,0.99322 l -0.588078,-2.49856 c -1.441723,1.32369 -2.78335,3.32616 -2.745052,6.17068 l 0.03772,0.0481 -0.03669,-0.0217 c 0.0058,0.35478 0.0293,0.72047 0.08062,1.10174 h -5.29e-4 l -1.789555,-1.87586 c -0.141992,0.46216 -0.257204,0.95804 -0.326595,1.48002 -0.01735,0.13049 -0.03154,0.26271 -0.04289,0.39636 -0.07906,0.93117 -0.005,1.93594 0.320394,2.97449 0.0021,0.007 0.0041,0.0134 0.0062,0.0202 0.04392,0.13883 0.09308,0.27814 0.146245,0.41806 0.0057,0.0151 0.0112,0.0303 0.01705,0.0455 0.05178,0.1338 0.108291,0.26794 0.168982,0.40256 0.0104,0.0231 0.02137,0.0461 0.03204,0.0693 0.0614,0.13287 0.126358,0.26648 0.196888,0.39997 0.0101,0.0191 0.02123,0.0382 0.03152,0.0574 0.07462,0.13867 0.152755,0.27739 0.237712,0.41652 l 0.05684,0.0232 -0.04237,-0.001 c 0.0935,0.15213 0.192379,0.30432 0.297657,0.45682 0.105278,0.15251 0.216959,0.30534 0.33693,0.45786 h -5.29e-4 l -2.511992,-0.75241 c 0.456705,1.87766 1.562817,4.01177 4.10931,5.40122 l 0.0615,-0.008 -0.03772,0.0202 c 0.318116,0.17241 0.654684,0.33537 1.01906,0.48266 v 5.2e-4 l -2.561601,0.57258 c 0.339693,0.35089 0.722757,0.69593 1.151868,1.01544 0.106784,0.0795 0.216649,0.15752 0.329178,0.23358 0.0011,7.9e-4 0.0025,0.001 0.0036,0.002 0.110949,0.0749 0.224457,0.14814 0.341065,0.2191 0.0046,0.003 0.0093,0.005 0.01395,0.008 0.116101,0.0704 0.234798,0.13876 0.356567,0.20464 0.619971,0.33538 1.31419,0.60845 2.087212,0.7829 0.0083,0.002 0.01647,0.004 0.0248,0.006 0.138181,0.0307 0.279469,0.0575 0.422714,0.0816 0.02888,0.005 0.05773,0.01 0.08682,0.0145 0.135551,0.0214 0.273331,0.0401 0.413411,0.0553 0.03458,0.004 0.06953,0.007 0.104387,0.0104 0.141283,0.0136 0.284586,0.0245 0.430464,0.0315 0.02968,0.001 0.06005,0.002 0.08992,0.003 0.155551,0.006 0.31258,0.009 0.473356,0.007 l 0.04961,-0.0367 -0.02222,0.0357 c 0.179962,-0.003 0.362829,-0.0103 0.548804,-0.0227 0.190718,-0.0137 0.383657,-0.0306 0.58136,-0.0558 l -1.926498,1.74563 c 1.897395,0.55493 4.34789,0.68602 6.856946,-0.76895 l 0.02377,-0.0553 -10e-4,0.0419 c 0.312328,-0.18226 0.625318,-0.38467 0.938444,-0.61856 l -0.772563,2.45049 c 1.927838,-0.44394 4.117043,-1.52461 5.543331,-4.00699 l -0.0078,-0.0594 0.02067,0.0367 c 0.176954,-0.31003 0.343901,-0.63811 0.495061,-0.99322 h 5.29e-4 l 0.587561,2.49803 c 1.441625,-1.32368 2.783864,-3.32581 2.745569,-6.17016 l -0.03772,-0.0481 0.03669,0.0217 c -0.0058,-0.35477 -0.0293,-0.71995 -0.08062,-1.10122 l 1.790072,1.87586 c 0.568138,-1.84873 0.70525,-4.23604 -0.787033,-6.68022 l -0.05788,-0.0232 0.04341,0.001 c -0.187096,-0.30445 -0.395003,-0.60944 -0.635103,-0.91467 l 2.512508,0.75189 c -0.456628,-1.87774 -1.563,-4.01195 -4.109285,-5.40128 l -0.0615,0.008 0.03772,-0.0202 c -0.318116,-0.17242 -0.654684,-0.3354 -1.019059,-0.48266 l 2.561601,-0.57258 c -1.358893,-1.40345 -3.412004,-2.71257 -6.329847,-2.67528 l -0.04961,0.0367 0.02274,-0.0362 c -0.364145,0.006 -0.739338,0.0285 -1.13068,0.0786 l 1.924947,-1.74408 c -1.897055,-0.55366 -4.346757,-0.6874 -6.854879,0.76687 z m 6.060612,0.89866 c 0.0089,-1.4e-4 0.01803,-5.3e-4 0.02687,-5.3e-4 l 1.612305,-1.19941 -0.437183,0.9803 1.493966,-0.6904 c -0.485234,-0.24404 -1.052425,-0.48935 -1.695503,-0.69143 z m 4.814176,3.73 c 0.0078,0.004 0.01603,0.008 0.02377,0.0124 l 2.011764,-0.2527 -0.8816,0.63562 1.647445,0.13023 c -0.295032,-0.44766 -0.659911,-0.93655 -1.113111,-1.42472 z m 2.255676,5.57641 c 0.0046,0.007 0.0099,0.0148 0.01447,0.0222 l 1.87172,0.7612 -1.089856,0.12092 1.360124,0.91571 c -0.02576,-0.53151 -0.09057,-1.13295 -0.232544,-1.77664 z m -0.907955,5.9278 c 1.43e-4,0.009 9.27e-4,0.0177 0.001,0.0264 l 1.230416,1.57148 -1.005623,-0.42633 0.707967,1.45624 c 0.250413,-0.47284 0.502667,-1.02541 0.710034,-1.65209 z m -3.827673,4.6917 c -0.0043,0.007 -0.0086,0.0153 -0.01292,0.0227 l 0.259415,1.9606 -0.652156,-0.85886 -0.133842,1.60662 c 0.459643,-0.28724 0.96161,-0.64277 1.46296,-1.08417 z m -5.722131,2.1978 c -0.0075,0.004 -0.01521,0.009 -0.02274,0.0134 l -0.781347,1.8247 -0.12454,-1.06196 -0.939995,1.32602 c 0.545514,-0.0248 1.162911,-0.0878 1.823662,-0.22582 z m -6.08335,-0.8847 c -0.009,1.3e-4 -0.01837,8e-4 -0.02739,0.001 l -1.612305,1.19941 0.4377,-0.9803 -1.495,0.6904 c 0.485078,0.24428 1.05206,0.49006 1.694987,0.69246 z m -4.814176,-3.73 c -0.0078,-0.004 -0.01603,-0.008 -0.02377,-0.0124 l -2.01228,0.25321 0.882116,-0.63613 -1.647961,-0.13023 c 0.127512,0.19353 0.271119,0.39593 0.426331,0.60152 0.04124,0.0546 0.08279,0.10921 0.12609,0.16433 0.170878,0.21762 0.355896,0.43819 0.561206,0.65939 z m -2.255159,-5.57588 c -0.0046,-0.007 -0.0099,-0.0148 -0.01447,-0.0222 l -1.872238,-0.76172 1.089856,-0.12092 -1.36064,-0.91571 c 0.02578,0.53149 0.09105,1.13294 0.233061,1.77664 z m 0.907438,-5.92832 c -1.43e-4,-0.009 -9.26e-4,-0.0177 -10e-4,-0.0264 l -1.230933,-1.57097 1.00614,0.42582 -0.707967,-1.45573 c -0.108603,0.20507 -0.21699,0.42793 -0.322461,0.6625 -0.02746,0.0612 -0.05472,0.12289 -0.08165,0.18603 -0.108043,0.25299 -0.211965,0.51957 -0.305925,0.80357 z m 3.827673,-4.6917 c 0.0043,-0.008 0.0086,-0.0157 0.01292,-0.0233 l -0.259933,-1.96009 0.652673,0.85938 0.133843,-1.60662 c -0.459653,0.28724 -0.962104,0.64225 -1.463477,1.08366 z m 1.810225,-3.42357 c -0.249905,0.11493 -0.57343,0.27885 -0.948779,0.49713 l 0.433565,1.03973 z m 13.028145,1.37253 -0.708483,0.88728 1.623673,-0.33331 c -0.228165,-0.15382 -0.53256,-0.3464 -0.91519,-0.55397 z m -18.855179,2.89543 c -0.0024,0.003 -0.0058,0.008 -0.0083,0.0119 -0.0628,0.0887 -0.134293,0.19542 -0.20774,0.30747 -0.0218,0.0332 -0.04255,0.0645 -0.06511,0.0997 -0.07297,0.11422 -0.151562,0.24448 -0.230993,0.38034 -0.01842,0.0314 -0.03616,0.061 -0.05478,0.0935 l 0.908989,0.68885 z m 23.641451,2.41122 -1.068152,0.42323 1.577164,0.5023 c -0.118715,-0.24447 -0.284042,-0.55923 -0.509012,-0.92553 z m -26.498641,4.12378 c -0.02264,0.2695 -0.04097,0.62267 -0.03411,1.04955 3e-6,1.9e-4 -3e-6,2.6e-4 0,5.3e-4 l 1.143082,0.15399 z m 26.778727,2.65049 1.108459,1.20354 c 0.02265,-0.26953 0.04094,-0.62266 0.03411,-1.04955 z m -25.898161,4.40179 c 0.0018,0.004 0.0033,0.007 0.0052,0.0109 0.04513,0.0927 0.1022,0.20266 0.16123,0.31419 0.0231,0.0436 0.04496,0.0856 0.07028,0.13178 0.06228,0.11359 0.135496,0.2385 0.21239,0.3669 0.02044,0.0342 0.03953,0.0668 0.06098,0.1018 l 1.066602,-0.42323 z m 23.807332,1.75493 0.342615,1.58285 c 0.157876,-0.22234 0.354839,-0.51945 0.567924,-0.89245 z m -17.804597,3.58997 -1.623157,0.33331 c 0.227139,0.15349 0.533764,0.34516 0.915706,0.55294 z m 12.834875,0.72347 -0.515214,1.53634 c 0.250016,-0.11497 0.573694,-0.27817 0.949296,-0.49661 z m -6.516398,1.31361 -1.235583,1.08004 c 0.275556,0.0223 0.639818,0.0382 1.077453,0.032 z" />
      <path
         style="display:inline;fill:none;stroke:#000000;stroke-width:0.264583px;stroke-linecap:butt;stroke-linejoin:miter;stroke-opacity:1;filter:url(#filter1560-8)"
         d="m 26.782013,51.063263 c 0,0 10.42128,9.395154 11.47961,11.114944"
         id="path914-2"
         transform="matrix(-0.42698752,0,0,0.42698752,109.90321,36.382336)" />
      <path
         style="display:inline;fill:none;stroke:#000000;stroke-width:0.264583px;stroke-linecap:butt;stroke-linejoin:miter;stroke-opacity:1;filter:url(#filter1560-8)"
         d="m 38.755693,73.888087 c 0,0 6.3851,4.42971 6.3851,5.09116"
         id="path916-1"
         transform="matrix(-0.42698752,0,0,0.42698752,109.90321,36.382336)" />
      <path
         style="display:inline;fill:none;stroke:#000000;stroke-width:0.264583px;stroke-linecap:butt;stroke-linejoin:miter;stroke-opacity:1;filter:url(#filter1560-8)"
         d="m 40.245993,80.434467 c 0,0 4.36563,3.83645 5.29167,3.57187 0.92604,-0.26459 8.33438,5.55625 8.33438,5.55625"
         id="path918-2"
         transform="matrix(-0.42698752,0,0,0.42698752,109.90321,36.382336)" />
      <path
         style="display:inline;fill:none;stroke:#000000;stroke-width:0.264583px;stroke-linecap:butt;stroke-linejoin:miter;stroke-opacity:1;filter:url(#filter1560-8)"
         d="m 50.300163,98.690707 c 0,0 11.77396,6.085423 12.7,8.069793"
         id="path920-6"
         transform="matrix(-0.42698752,0,0,0.42698752,109.90321,36.382336)" />
      <path
         style="display:inline;fill:none;stroke:#000000;stroke-width:0.264583px;stroke-linecap:butt;stroke-linejoin:miter;stroke-opacity:1;filter:url(#filter1560-8)"
         d="m 57.708493,111.39071 10.18646,9.525"
         id="path922-7"
         transform="matrix(-0.42698752,0,0,0.42698752,109.90321,36.382336)" />
      <path
         style="display:inline;fill:none;stroke:#000000;stroke-width:0.264583px;stroke-linecap:butt;stroke-linejoin:miter;stroke-opacity:1;filter:url(#filter1560-8)"
         d="m 60.222033,120.91571 4.8948,5.29167"
         id="path924-6"
         transform="matrix(-0.42698752,0,0,0.42698752,109.90321,36.382336)" />
      <path
         style="display:inline;fill:none;stroke:#000000;stroke-width:0.112973px;stroke-linecap:butt;stroke-linejoin:miter;stroke-opacity:1"
         d="m 73.654362,109.36387 c 0.254191,-0.11296 4.56255,-0.21183 4.56255,-0.21183 0,0 -2.867943,1.45454 -3.178619,1.34157"
         id="path900-9" />
      <path
         style="display:inline;fill:none;stroke:#000000;stroke-width:0.112973px;stroke-linecap:butt;stroke-linejoin:miter;stroke-opacity:1"
         d="m 74.701994,113.2461 c 0,0 4.038669,-2.97999 -4.63331,-5.01274"
         id="path902-4" />
      <path
         style="display:inline;fill:#311a00;fill-opacity:1;stroke:#000000;stroke-width:0.112973px;stroke-linecap:butt;stroke-linejoin:miter;stroke-opacity:1"
         d="m 56.764782,73.522944 c 0,0 -0.684909,0.38835 -1.059129,0.699028 0,0 0.02822,1.581628 0.946157,0.932032 0,0 0.826119,-0.466016 0.112972,-1.63106 z"
         id="path905-6" />
      <path
         style="display:inline;fill:none;stroke:#000000;stroke-width:0.112973px;stroke-linecap:butt;stroke-linejoin:miter;stroke-opacity:1"
         d="m 62.259975,54.590906 c 0,0 3.974259,2.496392 4.593366,3.834461"
         id="path871-4" />
      <path
         style="display:inline;fill:none;stroke:#000000;stroke-width:0.112973px;stroke-linecap:butt;stroke-linejoin:miter;stroke-opacity:1"
         d="m 55.849245,60.422479 c 0,0 0.479306,-1.338068 3.494944,-1.298124"
         id="path863-2" />
      <path
         style="display:inline;fill:none;stroke:#000000;stroke-width:0.112973px;stroke-linecap:butt;stroke-linejoin:miter;stroke-opacity:1"
         d="m 55.889185,61.161412 c 0,0 2.81593,-0.798851 5.312323,-0.519249"
         id="path879-0" />
      <path
         style="display:inline;fill:none;stroke:#000000;stroke-width:0.112973px;stroke-linecap:butt;stroke-linejoin:miter;stroke-opacity:1"
         d="m 57.926239,64.137108 c 0,0 3.674689,-1.637634 5.93143,0.239652"
         id="path883-1" />
      <path
         style="display:inline;fill:none;stroke:#000000;stroke-width:0.112973px;stroke-linecap:butt;stroke-linejoin:miter;stroke-opacity:1"
         d="m 63.058822,71.666223 c 0,0 0.639072,0.559193 -0.579165,2.536335"
         id="path851-2" />
      <path
         style="display:inline;fill:none;stroke:#000000;stroke-width:0.112973px;stroke-linecap:butt;stroke-linejoin:miter;stroke-opacity:1"
         d="m 55.278639,82.202423 c 0,0 1.895672,-0.488878 1.895672,-3.341465 0,0 0.974398,-0.268319 2.118259,0.282432"
         id="path860-4"
         inkscape:transform-center-x="-0.57386419"
         inkscape:transform-center-y="1.1659941" />
      <path
         style="display:inline;fill:none;stroke:#000000;stroke-width:0.112973px;stroke-linecap:butt;stroke-linejoin:miter;stroke-opacity:1"
         d="m 57.174311,78.860958 c 0,0 -0.409529,-0.127097 -1.129737,-0.02824"
         id="path862-5"
         inkscape:transform-center-x="0.102298"
         inkscape:transform-center-y="-0.50501021" />
      <path
         style="display:inline;mix-blend-mode:normal;fill:none;stroke:#000000;stroke-width:0.117171px;stroke-linecap:butt;stroke-linejoin:miter;stroke-opacity:1"
         d="m 136.91206,78.714231 c 0,0 3.14251,-1.428807 5.05107,-0.968962"
         id="path1172" />
      <path
         style="display:inline;mix-blend-mode:normal;fill:none;stroke:#000000;stroke-width:0.117171px;stroke-linecap:butt;stroke-linejoin:miter;stroke-opacity:1"
         d="m 141.96313,77.745269 c 0,0 3.50448,-0.229919 4.78782,0.656924"
         id="path1174" />
      <path
         style="display:inline;mix-blend-mode:normal;fill:none;stroke:#000000;stroke-width:0.117171px;stroke-linecap:butt;stroke-linejoin:miter;stroke-opacity:1"
         d="m 146.75095,78.402193 c 0,0 4.49167,1.166033 4.55748,1.313849 0.0658,0.147799 1.33323,0.314125 1.33323,0.314125"
         id="path1176" />
      <path
         style="display:inline;fill:none;stroke:#000000;stroke-width:0.117171px;stroke-linecap:butt;stroke-linejoin:miter;stroke-opacity:1"
         d="m 117.31551,73.575232 0.18218,1.312446"
         id="path1082" />
      <path
         style="display:inline;fill:none;stroke:#000000;stroke-width:0.117171px;stroke-linecap:butt;stroke-linejoin:miter;stroke-opacity:1"
         d="m 118.39746,74.422957 c 0,0 0.0545,1.039526 0.0545,1.22018"
         id="path1084" />
      <path
         style="display:inline;fill:none;stroke:#000000;stroke-width:0.117171px;stroke-linecap:butt;stroke-linejoin:miter;stroke-opacity:1"
         d="m 119.37471,74.875863 c 0,0 0.0644,1.292807 0.0644,1.358494"
         id="path1086" />
      <path
         style="display:inline;fill:none;stroke:#000000;stroke-width:0.117171px;stroke-linecap:butt;stroke-linejoin:miter;stroke-opacity:1"
         d="m 120.58464,75.886168 c 0,0 -0.0268,0.610965 -0.0268,0.791611"
         id="path1088" />
      <path
         style="display:inline;fill:none;stroke:#000000;stroke-width:0.117171px;stroke-linecap:butt;stroke-linejoin:miter;stroke-opacity:1"
         d="m 121.31758,76.339066 c 0,0 0.12879,0.897094 0.14524,1.012054"
         id="path1090" />
      <path
         style="display:inline;fill:none;stroke:#000000;stroke-width:0.117171px;stroke-linecap:butt;stroke-linejoin:miter;stroke-opacity:1"
         d="m 122.16684,77.186791 c 0,0 0.0199,0.657013 0.0199,0.77198"
         id="path1092" />
      <path
         style="display:inline;fill:none;stroke:#000000;stroke-width:0.117171px;stroke-linecap:butt;stroke-linejoin:miter;stroke-opacity:1"
         d="m 123.02584,77.745269 c 0,0 -0.0329,0.426998 0.0165,0.624076"
         id="path1094" />
      <path
         style="display:inline;fill:none;stroke:#000000;stroke-width:0.117171px;stroke-linecap:butt;stroke-linejoin:miter;stroke-opacity:1"
         d="m 116.43133,77.361 c 0,0 0.70439,0.02296 0.83602,-0.157687"
         id="path1096" />
      <path
         style="display:inline;fill:none;stroke:#000000;stroke-width:0.117171px;stroke-linecap:butt;stroke-linejoin:miter;stroke-opacity:1"
         d="m 118.22294,78.278401 c 0,0 0.68968,-0.270366 0.83777,-0.23751"
         id="path1098" />
      <path
         style="display:inline;fill:none;stroke:#000000;stroke-width:0.117171px;stroke-linecap:butt;stroke-linejoin:miter;stroke-opacity:1"
         d="m 119.08386,78.812589 1.12854,-0.246165"
         id="path1100" />
      <path
         style="display:inline;fill:none;stroke:#000000;stroke-width:0.117171px;stroke-linecap:butt;stroke-linejoin:miter;stroke-opacity:1"
         d="m 120.99182,79.381648 c 0,0 0.58616,-0.273267 0.65198,-0.388227"
         id="path1102" />
      <path
         style="display:inline;fill:none;stroke:#000000;stroke-width:0.117171px;stroke-linecap:butt;stroke-linejoin:miter;stroke-opacity:1"
         d="m 120.99182,79.381648 c 0,0 1.29364,0.662847 2.29727,0.104467"
         id="path1104" />
      <path
         style="display:inline;fill:none;stroke:#000000;stroke-width:0.117171px;stroke-linecap:butt;stroke-linejoin:miter;stroke-opacity:1"
         d="m 123.28909,79.486115 c 0,0 -1.49721,0.821147 1.8427,0.870418"
         id="path1106" />
      <path
         style="display:inline;fill:none;stroke:#000000;stroke-width:0.117171px;stroke-linecap:butt;stroke-linejoin:miter;stroke-opacity:1"
         d="m 125.13179,80.356533 c 0,0 2.63246,-1.379535 3.48801,-1.133192"
         id="path1108" />
      <path
         style="display:inline;fill:none;stroke:#000000;stroke-width:0.117171px;stroke-linecap:butt;stroke-linejoin:miter;stroke-opacity:1"
         d="m 128.6198,79.223341 c 0,0 2.58309,0.492701 2.69826,-1.133186"
         id="path1110" />
      <path
         style="display:inline;fill:none;stroke:#000000;stroke-width:0.117171px;stroke-linecap:butt;stroke-linejoin:miter;stroke-opacity:1"
         d="m 129.88667,78.106578 c 0,0 0.9049,-0.197078 1.43139,-0.01644"
         id="path1112" />
      <path
         style="display:inline;fill:none;stroke:#000000;stroke-width:0.117171px;stroke-linecap:butt;stroke-linejoin:miter;stroke-opacity:1"
         d="m 131.31806,78.090163 c 0,0 1.21752,-0.279199 2.50085,0.689755"
         id="path1114" />
      <path
         style="display:inline;fill:none;stroke:#000000;stroke-width:0.117171px;stroke-linecap:butt;stroke-linejoin:miter;stroke-opacity:1"
         d="m 125.7241,79.239764 c 0,0 1.03653,-0.443421 2.15532,-0.525533"
         id="path1116" />
      <path
         style="display:inline;fill:none;stroke:#000000;stroke-width:0.117171px;stroke-linecap:butt;stroke-linejoin:miter;stroke-opacity:1"
         d="m 140.15294,83.32999 c 0,0 -0.72357,-0.2965 -0.77294,-0.46074"
         id="path1118" />
      <path
         style="display:inline;fill:none;stroke:#000000;stroke-width:0.117171px;stroke-linecap:butt;stroke-linejoin:miter;stroke-opacity:1"
         d="m 138.33803,83.86418 c 0,0 -0.66913,-0.0917 -0.73494,-0.32158"
         id="path1120" />
      <path
         style="display:inline;fill:none;stroke:#000000;stroke-width:0.117171px;stroke-linecap:butt;stroke-linejoin:miter;stroke-opacity:1"
         d="m 137.24441,84.90933 c 0,0 -0.79304,-0.44704 -0.90821,-0.41419"
         id="path1122" />
      <path
         style="display:inline;fill:none;stroke:#000000;stroke-width:0.117171px;stroke-linecap:butt;stroke-linejoin:miter;stroke-opacity:1"
         d="m 139.89004,81.029873 c 0,0 2.66539,1.018234 2.64893,1.510927"
         id="path1128" />
      <path
         style="display:inline;fill:none;stroke:#000000;stroke-width:0.117171px;stroke-linecap:butt;stroke-linejoin:miter;stroke-opacity:1"
         d="m 152.83403,81.379031 c 0,0 -0.65358,-0.250614 -0.78521,-0.250614"
         id="path1130" />
      <path
         style="display:inline;fill:none;stroke:#000000;stroke-width:0.117171px;stroke-linecap:butt;stroke-linejoin:miter;stroke-opacity:1"
         d="m 143.82929,82.51708 c 0,0 -0.82962,-0.304741 -1.29032,0.0237"
         id="path1132" />
      <path
         style="display:inline;opacity:0.992;fill:#360000;fill-opacity:0.992157;stroke:#360000;stroke-width:0.999999px;stroke-linecap:butt;stroke-linejoin:miter;stroke-opacity:0.992157;filter:url(#filter943)"
         d="m 0.51647364,7.1608186 c 0,0 5.05923786,-9.4240631 7.24165046,-5.8528631 2.1823748,3.5712379 -0.7936252,9.5232755 -0.7936252,9.5232755 0,0 -6.84483786,3.670413 -6.44802526,-3.174425"
         id="path1184"
         transform="matrix(0.11727742,0,0,0.11706434,123.67108,76.852068)" />
      <path
         style="display:inline;mix-blend-mode:normal;fill:none;stroke:#000000;stroke-width:0.117171px;stroke-linecap:butt;stroke-linejoin:miter;stroke-opacity:1"
         d="m 129.62341,75.019061 c 0,0 0.26326,-0.443413 0.0494,-0.574796"
         id="path1284" />
      <path
         style="display:inline;fill:none;stroke:#000000;stroke-width:0.117171px;stroke-linecap:butt;stroke-linejoin:miter;stroke-opacity:1"
         d="m 119.22887,79.240498 c 0,0 0.79111,0.278706 1.04707,0.116127"
         id="path1135" />
      <path
         style="display:inline;fill:#fff1de;fill-opacity:0.992157;stroke:#ffedd8;stroke-width:0.117171px;stroke-linecap:butt;stroke-linejoin:miter;stroke-opacity:0.992157"
         d="m 119.13039,79.265496 c -0.038,-0.0253 -0.10566,2.994454 0.72672,2.738852 0,0 0.0644,-2.1466 0.50649,-2.587886"
         id="path1137"
         sodipodi:nodetypes="ccc" />
    </g>
  </g>
</svg>
