<?xml version="1.0" encoding="UTF-8" standalone="no"?>
<svg
   xmlns:dc="http://purl.org/dc/elements/1.1/"
   xmlns:cc="http://creativecommons.org/ns#"
   xmlns:rdf="http://www.w3.org/1999/02/22-rdf-syntax-ns#"
   xmlns:svg="http://www.w3.org/2000/svg"
   xmlns="http://www.w3.org/2000/svg"
   xmlns:sodipodi="http://sodipodi.sourceforge.net/DTD/sodipodi-0.dtd"
   xmlns:inkscape="http://www.inkscape.org/namespaces/inkscape"
   width="210mm"
   height="297mm"
   viewBox="0 0 210 297"
   version="1.1"
   id="svg8"
   inkscape:version="1.0.1 (3bc2e813f5, 2020-09-07)"
   sodipodi:docname="RoadRunner.svg">
  <title
     id="title833">RoadRunner</title>
  <defs
     id="defs2" />
  <sodipodi:namedview
     id="base"
     pagecolor="#ffffff"
     bordercolor="#666666"
     borderopacity="1.0"
     inkscape:pageopacity="0.0"
     inkscape:pageshadow="2"
     inkscape:zoom="2"
     inkscape:cx="-330.64504"
     inkscape:cy="309.34969"
     inkscape:document-units="px"
     inkscape:current-layer="layer7"
     inkscape:document-rotation="0"
     showgrid="false"
     inkscape:window-width="1920"
     inkscape:window-height="1001"
     inkscape:window-x="-9"
     inkscape:window-y="-9"
     inkscape:window-maximized="1"
     showborder="false" />
  <metadata
     id="metadata5">
    <rdf:RDF>
      <cc:Work
         rdf:about="">
        <dc:format>image/svg+xml</dc:format>
        <dc:type
           rdf:resource="http://purl.org/dc/dcmitype/StillImage" />
        <dc:title>RoadRunner</dc:title>
      </cc:Work>
    </rdf:RDF>
  </metadata>
  <g
     inkscape:groupmode="layer"
     id="layer7"
     inkscape:label="Tail"
     style="display:inline;opacity:1">
    <path
       style="fill:#579bab;fill-opacity:1;stroke:#000000;stroke-width:0.264583px;stroke-linecap:butt;stroke-linejoin:miter;stroke-opacity:1"
       d="m -118.98839,18.895955 c 0,0 -5.23848,-8.793167 -3.55469,-39.101531 0,0 1.87089,-28.25039 -14.40583,-45.649636 0,0 -24.32152,-46.210898 -49.01723,-58.371668 0,0 -58.55875,-22.07646 -8.04481,9.9157 0,0 18.89595,12.34785 17.96051,14.03165 0,0 -12.72203,-4.8643 -2.43215,7.670639 0,0 13.09621,15.154182 14.40583,15.154182 0,0 -4.33053,0.593252 1.4903,6.546378 0,0 -39.62135,-7.474481 -3.57187,12.170832 0,0 8.79739,2.84427 13.62604,6.085415 0,0 -0.7276,6.085418 2.97656,8.400522 l 4.43177,4.299478 c 0,0 -0.7276,5.820834 2.51354,9.525 0,0 -7.01146,-0.992187 2.31511,11.310938 l 8.33437,12.5677085 c 0,0 -21.10052,-19.2484375 -5.22552,5.3578125 0,0 4.56406,4.4317709 5.15938,4.5640625 0,0 7.01145,15.4781255 8.26823,17.3963545 l 4.77046,-1.873837"
       id="path904"
       sodipodi:nodetypes="cccccccccccccccccccc" />
    <path
       style="fill:none;stroke:#000000;stroke-width:0.264583px;stroke-linecap:butt;stroke-linejoin:miter;stroke-opacity:1"
       d="m -176.05044,-100.27953 c 0,0 10.42128,9.395156 11.47961,11.114948"
       id="path914" />
    <path
       style="fill:none;stroke:#000000;stroke-width:0.264583px;stroke-linecap:butt;stroke-linejoin:miter;stroke-opacity:1"
       d="m -164.07676,-77.454709 c 0,0 6.3851,4.42971 6.3851,5.091168"
       id="path916" />
    <path
       style="fill:none;stroke:#000000;stroke-width:0.264583px;stroke-linecap:butt;stroke-linejoin:miter;stroke-opacity:1"
       d="m -162.58646,-70.90833 c 0,0 4.36563,3.836456 5.29167,3.571873 0.92604,-0.264584 8.33438,5.556249 8.33438,5.556249"
       id="path918" />
    <path
       style="fill:none;stroke:#000000;stroke-width:0.264583px;stroke-linecap:butt;stroke-linejoin:miter;stroke-opacity:1"
       d="m -152.53229,-52.652083 c 0,0 11.77396,6.085417 12.7,8.069792"
       id="path920" />
    <path
       style="fill:none;stroke:#000000;stroke-width:0.264583px;stroke-linecap:butt;stroke-linejoin:miter;stroke-opacity:1"
       d="m -145.12396,-39.952083 10.18646,9.525"
       id="path922" />
    <path
       style="fill:none;stroke:#000000;stroke-width:0.264583px;stroke-linecap:butt;stroke-linejoin:miter;stroke-opacity:1"
       d="m -142.61042,-30.427083 4.8948,5.291667"
       id="path924" />
  </g>
  <g
     inkscape:groupmode="layer"
     id="g993"
     inkscape:label="Rightleg"
     style="display:inline;opacity:1">
    <path
       style="fill:none;stroke:#000000;stroke-width:0.264583px;stroke-linecap:butt;stroke-linejoin:miter;stroke-opacity:1"
       d="M -92.835594,35.099396 Z"
       id="path971"
       inkscape:transform-center-x="-2.7995823"
       inkscape:transform-center-y="8.7738656" />
    <path
       style="display:inline;fill:#579bab;fill-opacity:1;stroke:#000000;stroke-width:0.264583px;stroke-linecap:butt;stroke-linejoin:miter;stroke-opacity:1"
       d="m -92.835594,35.099396 -13.678456,-4.930059 c 0,0 -5.58206,7.260182 -8.20944,7.782032 0,0 0.79762,9.180366 7.71732,6.290585 0,0 6.42705,-4.34728 8.571994,-3.894054 2.14494,0.453228 5.598582,-5.248504 5.598582,-5.248504"
       id="path973"
       sodipodi:nodetypes="ccccsc"
       inkscape:transform-center-x="8.1443656"
       inkscape:transform-center-y="11.161484" />
    <path
       style="fill:#a81a00;fill-opacity:1;stroke:#000000;stroke-width:0.264583px;stroke-linecap:butt;stroke-linejoin:miter;stroke-opacity:1"
       d="m -107.00617,44.241954 -1.29689,1.084758 c 0,0 -2.49129,7.305582 -1.9845,13.200843 0,0 -0.74623,18.842475 0.0883,24.94112 0,0 2.16331,14.520078 2.49103,14.723462 0,0 9.350896,2.852803 16.317265,1.502103 0,0 8.601963,-0.135353 8.861547,0.199272 0,0 3.98619,-1.13082 6.08473,0.09148 0,0 16.818475,-5.436463 20.377226,13.073778 0,0 1.6147,2.60425 1.400383,3.65947 0,0 -2.699747,-0.83441 -2.748989,-1.95975 0,0 -3.259664,1.20794 -4.838039,0.58883 0,0 1.27109,3.45908 0.640067,5.83111 0,0 0.490349,2.58735 0.149718,3.24377 0,0 -1.706679,-0.88565 -1.891182,-1.81456 0,0 -4.941941,3.10111 -18.800288,-7.95626 0,0 -7.781568,-10.43687 -23.135588,-10.00605 0,0 -10.29173,-1.87463 -22.35719,4.22865 0,0 -1.8648,0.83195 -4.62967,-0.0696 0,0 -3.94691,2.9176 -1.23379,-1.54008 0,0 -1.63313,-5.77987 6.2209,-8.969522 0,0 5.60131,-2.958885 11.50409,0.437472 0,0 2.95536,1.43364 4.62374,0.466379 l -7.33194,-44.763649 c 0,0 -1.2235,-15.432105 0.34993,-14.482316 0,0 -0.0784,-1.195951 3.42181,-2.00134 0,0 0.77528,9.109865 7.71732,6.290585"
       id="path975"
       sodipodi:nodetypes="ccccccccccccccccccccccccccc"
       inkscape:transform-center-x="-1.0793093"
       inkscape:transform-center-y="54.86123" />
    <path
       style="fill:none;stroke:#000000;stroke-width:0.264583px;stroke-linecap:butt;stroke-linejoin:miter;stroke-opacity:1"
       d="m -76.444677,99.984977 c 0,0 -0.953155,0.696823 -1.091892,1.124743"
       id="path977"
       inkscape:transform-center-x="-18.644553"
       inkscape:transform-center-y="74.221818" />
    <path
       style="fill:none;stroke:#000000;stroke-width:0.264583px;stroke-linecap:butt;stroke-linejoin:miter;stroke-opacity:1"
       d="m -82.529405,99.893512 c 0,0 -1.082826,0.521258 -1.162449,0.867368"
       id="path979"
       inkscape:transform-center-x="-12.524548"
       inkscape:transform-center-y="74.001665" />
    <path
       style="fill:none;stroke:#000000;stroke-width:0.264583px;stroke-linecap:butt;stroke-linejoin:miter;stroke-opacity:1"
       d="m -62.254097,115.34731 c 0,0 -5.853395,-13.28554 -15.97527,-11.05612 0,0 -1.992875,-1.6507 -8.096487,-0.48549 0,0 -0.216574,-0.99556 -4.025995,-0.6228 -3.809415,0.37275 -7.002209,-0.66748 -7.002209,-0.66748"
       id="path981"
       inkscape:transform-center-x="-15.831099"
       inkscape:transform-center-y="82.605834" />
    <path
       style="fill:none;stroke:#000000;stroke-width:0.264583px;stroke-linecap:butt;stroke-linejoin:miter;stroke-opacity:1"
       d="m -86.325853,103.8057 c 0,0 -1.100227,0.57886 -0.971927,0.84538"
       id="path983"
       inkscape:transform-center-x="-8.8181559"
       inkscape:transform-center-y="77.902859" />
    <path
       style="fill:none;stroke:#000000;stroke-width:0.264583px;stroke-linecap:butt;stroke-linejoin:miter;stroke-opacity:1"
       d="m -78.229364,104.29119 c 0,0 -1.568668,0.93566 -1.441856,1.30141"
       id="path985"
       inkscape:transform-center-x="-16.681237"
       inkscape:transform-center-y="78.616364" />
    <path
       style="fill:none;stroke:#000000;stroke-width:0.264583px;stroke-linecap:butt;stroke-linejoin:miter;stroke-opacity:1"
       d="m -61.61403,121.17842 c 0,0 -0.919204,1.73924 -1.741462,1.42921"
       id="path987"
       inkscape:transform-center-x="-33.150416"
       inkscape:transform-center-y="95.586003" />
    <path
       style="fill:none;stroke:#000000;stroke-width:0.264583px;stroke-linecap:butt;stroke-linejoin:miter;stroke-opacity:1"
       d="m -56.067451,113.05876 c 0,0 0.136028,1.95355 -1.348606,1.69972"
       id="path989"
       inkscape:transform-center-x="-38.895054"
       inkscape:transform-center-y="87.594466" />
    <path
       style="fill:none;stroke:#000000;stroke-width:0.264583px;stroke-linecap:butt;stroke-linejoin:miter;stroke-opacity:1"
       d="m -133.51202,107.26432 c 0,0 0.40507,1.65992 1.23379,1.54008"
       id="path991"
       inkscape:transform-center-x="37.259949"
       inkscape:transform-center-y="81.711925" />
  </g>
  <g
     inkscape:groupmode="layer"
     id="layer8"
     inkscape:label="Leftleg"
     style="display:inline;opacity:1">
    <path
       style="fill:none;stroke:#000000;stroke-width:0.264583px;stroke-linecap:butt;stroke-linejoin:miter;stroke-opacity:1"
       d="M -98.128007,36.108113 Z"
       id="path931" />
    <path
       style="display:inline;fill:#579bab;fill-opacity:1;stroke:#000000;stroke-width:0.264583px;stroke-linecap:butt;stroke-linejoin:miter;stroke-opacity:1"
       d="m -98.128007,36.108113 -13.751013,-4.72399 c 0,0 -5.47235,7.34323 -8.09159,7.904496 0,0 0.93545,9.167347 7.81095,6.173928 0,0 6.36102,-4.443356 8.51254,-4.022407 2.15152,0.42095 5.519112,-5.332027 5.519112,-5.332027"
       id="path933"
       sodipodi:nodetypes="ccccsc" />
    <path
       style="fill:#a81a00;fill-opacity:1;stroke:#000000;stroke-width:0.264583px;stroke-linecap:butt;stroke-linejoin:miter;stroke-opacity:1"
       d="m -112.15966,45.462547 -1.28044,1.104119 c 0,0 -2.38125,7.342188 -1.78594,13.229168 0,0 -0.46302,18.851562 0.46302,24.936978 0,0 2.38125,14.485937 2.71198,14.684374 0,0 9.39271,2.711984 16.338019,1.256774 0,0 8.598958,-0.26458 8.863541,0.0661 0,0 3.96875,-1.19058 6.085417,4e-5 0,0 16.734896,-5.688537 20.571354,12.76615 0,0 1.653646,2.57969 1.455209,3.63802 0,0 -2.71198,-0.79375 -2.778125,-1.91823 0,0 -3.241146,1.25677 -4.828645,0.66146 0,0 1.322917,3.43958 0.727604,5.82083 0,0 0.529167,2.57969 0.198438,3.24115 0,0 -1.719793,-0.8599 -1.918231,-1.78594 0,0 -4.894791,3.175 -18.917707,-7.67291 0,0 -7.937499,-10.31876 -23.283334,-9.6573 0,0 -10.31875,-1.71979 -22.29114,4.56406 0,0 -1.85209,0.8599 -4.63021,1e-5 0,0 -3.90261,2.97656 -1.25678,-1.52136 0,0 -1.71979,-5.75469 6.08542,-9.061978 0,0 5.55625,-3.042709 11.50938,0.264578 0,0 2.97656,1.38907 4.63021,0.39688 l -8.00365,-44.648436 c 0,0 -1.45521,-15.41198 0.13229,-14.485938 0,0 -0.0964,-1.194637 3.39137,-2.052527 0,0 0.91205,9.097189 7.81095,6.173928"
       id="path935"
       sodipodi:nodetypes="ccccccccccccccccccccccccccc" />
    <path
       style="fill:none;stroke:#000000;stroke-width:0.264583px;stroke-linecap:butt;stroke-linejoin:miter;stroke-opacity:1"
       d="m -80.764061,100.7401 c 0,0 -0.942579,0.71107 -1.07487,1.14102"
       id="path953" />
    <path
       style="fill:none;stroke:#000000;stroke-width:0.264583px;stroke-linecap:butt;stroke-linejoin:miter;stroke-opacity:1"
       d="m -86.849478,100.74006 c 0,0 -1.07487,0.53748 -1.149284,0.88474"
       id="path955" />
    <path
       style="fill:none;stroke:#000000;stroke-width:0.264583px;stroke-linecap:butt;stroke-linejoin:miter;stroke-opacity:1"
       d="m -66.34427,115.8875 c 0,0 -6.052344,-13.1961 -16.139583,-10.81485 0,0 -2.01745,-1.62057 -8.102866,-0.3638 0,0 -0.231511,-0.99218 -4.034896,-0.56223 -3.803386,0.42994 -7.011455,-0.56224 -7.011455,-0.56224"
       id="path959" />
    <path
       style="fill:none;stroke:#000000;stroke-width:0.264583px;stroke-linecap:butt;stroke-linejoin:miter;stroke-opacity:1"
       d="m -90.586718,104.70885 c 0,0 -1.091406,0.59532 -0.959114,0.8599"
       id="path961" />
    <path
       style="fill:none;stroke:#000000;stroke-width:0.264583px;stroke-linecap:butt;stroke-linejoin:miter;stroke-opacity:1"
       d="m -82.48385,105.07265 c 0,0 -1.55443,0.95912 -1.422139,1.32292"
       id="path963" />
    <path
       style="fill:none;stroke:#000000;stroke-width:0.264583px;stroke-linecap:butt;stroke-linejoin:miter;stroke-opacity:1"
       d="m -65.616666,121.70833 c 0,0 -0.892969,1.75286 -1.719791,1.45521"
       id="path965" />
    <path
       style="fill:none;stroke:#000000;stroke-width:0.264583px;stroke-linecap:butt;stroke-linejoin:miter;stroke-opacity:1"
       d="m -60.192708,113.50625 c 0,0 0.165365,1.9513 -1.322916,1.71979"
       id="path967" />
    <path
       style="fill:none;stroke:#000000;stroke-width:0.264583px;stroke-linecap:butt;stroke-linejoin:miter;stroke-opacity:1"
       d="m -137.71563,108.87604 c 0,0 0.42997,1.65365 1.25678,1.52136"
       id="path969" />
  </g>
  <g
     inkscape:groupmode="layer"
     id="layer5"
     inkscape:label="Body"
     style="display:inline">
    <path
       style="fill:#579bab;fill-opacity:1;stroke:#000000;stroke-width:0.264583px;stroke-linecap:butt;stroke-linejoin:miter;stroke-opacity:1"
       d="m -85.989582,10.451042 c 0,0 -15.610418,1.984375 -24.341668,6.217708 0,0 -6.61458,0.396875 -9.12813,0.264583 0,0 -7.9375,-0.132291 -8.73125,2.38125 0,0 -17.85937,-7.408333 -1.85208,5.291667 0,0 8.59896,4.7625 9.39271,4.233333 0,0 11.37708,11.90625 30.956251,8.069792 0,0 6.746874,2.645834 13.096875,-31.6177083 0,0 3.175,-7.9375 2.513542,-20.1083327 0,0 -1.984377,-31.220834 -2.513543,-31.750001 l -10.583332,3.439584 c 0,0 19.84375,25.003125 1.190625,53.578125 z"
       id="path56"
       sodipodi:nodetypes="cccccccccccc" />
  </g>
  <g
     inkscape:groupmode="layer"
     id="layer6"
     inkscape:label="Wing"
     style="display:inline;opacity:1">
    <path
       style="fill:#311a88;fill-opacity:1;stroke:#000000;stroke-width:0.264583px;stroke-linecap:butt;stroke-linejoin:miter;stroke-opacity:1"
       d="m -90.550914,17.726651 c 0,0 1.169302,11.318865 -10.149566,15.715449 0,0 -10.71082,-0.280633 -19.69108,-4.770763 0,0 -17.07184,-6.267469 -16.18317,-10.383419 0,0 -1.1693,-3.835318 7.95127,0.795126 0,0 1.96443,-3.180507 14.26551,-1.73057 0,0 3.08698,0.654809 4.81754,-0.42095 0,0 13.002658,-4.303039 18.989496,0.795127 z"
       id="path890"
       sodipodi:nodetypes="cccccccc" />
    <path
       style="fill:none;stroke:#000000;stroke-width:0.264583px;stroke-linecap:butt;stroke-linejoin:miter;stroke-opacity:1"
       d="m -117.93802,19.579166 c -0.59531,-0.264583 -10.68544,-0.496122 -10.68544,-0.496122 0,0 6.71669,3.406539 7.44429,3.141956"
       id="path900" />
    <path
       style="fill:none;stroke:#000000;stroke-width:0.264583px;stroke-linecap:butt;stroke-linejoin:miter;stroke-opacity:1"
       d="m -120.39156,28.671337 c 0,0 -9.45853,-6.979123 10.85115,-11.739813"
       id="path902" />
  </g>
  <g
     inkscape:groupmode="layer"
     id="layer4"
     inkscape:label="Eye"
     style="display:inline">
    <path
       style="fill:none;stroke:#000000;stroke-width:0.264583px;stroke-linecap:butt;stroke-linejoin:miter;stroke-opacity:1"
       d="m -86.485676,-67.171093 c 0,0 12.913058,1.409428 14.877489,11.325127"
       id="path897" />
    <path
       style="fill:none;stroke:#000000;stroke-width:0.264583px;stroke-linecap:butt;stroke-linejoin:miter;stroke-opacity:1"
       d="m -71.608187,-55.845966 0.935442,3.227279 -16.276714,-1.309621 -4.303038,-13.891334 4.766821,0.648549"
       id="path899" />
    <path
       style="fill:#311a00;fill-opacity:1;stroke:#000000;stroke-width:0.264583px;stroke-linecap:butt;stroke-linejoin:miter;stroke-opacity:1"
       d="m -78.382812,-64.359895 c 0,0 1.604037,0.909505 2.480469,1.637109 0,0 -0.06615,3.704166 -2.215886,2.182812 0,0 -1.934765,-1.091404 -0.264583,-3.819921 z"
       id="path905" />
  </g>
  <g
     inkscape:groupmode="layer"
     id="layer3"
     inkscape:label="Hair"
     style="display:inline">
    <path
       id="path839"
       style="fill:#311a88;fill-opacity:1;stroke:#000000;stroke-width:0.999999px;stroke-linecap:butt;stroke-linejoin:miter;stroke-opacity:1"
       d="m -352.17383,-423.04492 c -13.49764,-0.11797 -34.25976,14.6914 -34.25976,14.6914 -40.65865,26.51653 -31.28907,70.00196 -31.28907,70.00196 -8.13173,-12.37437 -10.2539,-53.91602 -10.2539,-53.91602 -1.94453,-4.24263 -10.07617,-1.76758 -10.07617,-1.76758 -13.08148,51.97235 -0.5293,69.47266 -0.5293,69.47266 16.44023,17.50089 27.08203,24.4375 27.08203,24.4375 33.12499,23.625 44.625,50.875 44.625,50.875 0,0 2.375,3.87499 0.75,3.75 -1.62502,-0.125 -1.39453,2.43164 -1.39453,2.43164 -1.94454,12.02082 12.19922,51.79688 12.19922,51.79688 L -319.5,-215.75 c -15.75,-17.75 -21.625,-39.125 -17.5,-37.25 4.125,1.875 9.08008,-1.55859 9.08008,-1.55859 -13.43504,-13.25825 -24.04297,-5.12696 -24.04297,-5.12696 -23.51131,-48.08326 23.1582,-53.74023 23.1582,-53.74023 22.80419,1.59099 22.27344,-12.9043 22.27344,-12.9043 83.08504,12.55115 18.03125,-26.33984 18.03125,-26.33984 4.77299,-0.70711 0.35352,-6.54102 0.35352,-6.54102 76.72108,9.0156 66.99804,-17.85351 66.99804,-17.85351 -48.61358,-52.14913 -123.74218,-33.76367 -123.74218,-33.76367 3.7123,-4.94975 -3.35938,-11.66797 -3.35938,-11.66797 -1.20982,-0.36461 -2.52752,-0.53663 -3.92383,-0.54883 z"
       transform="scale(0.26458333)" />
    <path
       style="fill:none;stroke:#000000;stroke-width:0.264583px;stroke-linecap:butt;stroke-linejoin:miter;stroke-opacity:1"
       d="m -91.252499,-108.69852 c 0,0 -9.307661,5.84652 -10.757601,8.980259"
       id="path871" />
    <path
       style="fill:none;stroke:#000000;stroke-width:0.264583px;stroke-linecap:butt;stroke-linejoin:miter;stroke-opacity:1"
       d="m -76.238633,-95.041044 c 0,0 -1.122532,-3.133735 -8.185129,-3.040191"
       id="path863" />
    <path
       style="fill:none;stroke:#000000;stroke-width:0.264583px;stroke-linecap:butt;stroke-linejoin:miter;stroke-opacity:1"
       d="m -76.332181,-93.310473 c 0,0 -6.594872,-1.870888 -12.441393,-1.216077"
       id="path879" />
    <path
       style="fill:none;stroke:#000000;stroke-width:0.264583px;stroke-linecap:butt;stroke-linejoin:miter;stroke-opacity:1"
       d="m -81.102937,-86.34142 c 0,0 -8.60608,-3.835319 -13.891335,0.561265"
       id="path883" />
    <path
       style="fill:none;stroke:#000000;stroke-width:0.264583px;stroke-linecap:butt;stroke-linejoin:miter;stroke-opacity:1"
       d="m -93.123385,-68.708314 c 0,0 -1.496707,1.309621 1.356393,5.940065"
       id="path851" />
  </g>
  <g
     inkscape:groupmode="layer"
     id="layer2"
     inkscape:label="Mouth"
     style="display:inline">
    <path
       id="path850"
       style="fill:#ffa814;fill-opacity:1;stroke:#000000;stroke-width:0.999999px;stroke-linecap:butt;stroke-linejoin:miter;stroke-opacity:1"
       d="m -229.30469,-233.0918 c -12.50064,30.43085 -41.66797,22.34961 -41.66797,22.34961 -1.13641,12.87945 -17.93164,6.06055 -17.93164,6.06055 -35.73414,-16.03617 -53.66406,-11.23828 -53.66406,-11.23828 -27.77919,29.29442 -17.42383,54.42187 -17.42383,54.42187 22.4759,17.42513 76.89649,-4.92383 76.89649,-4.92383 76.51905,12.12183 53.79101,-66.66992 53.79101,-66.66992 z"
       transform="scale(0.26458333)"
       inkscape:transform-center-x="-0.46719031"
       inkscape:transform-center-y="-0.56897846" />
    <path
       style="fill:none;stroke:#000000;stroke-width:0.264583px;stroke-linecap:butt;stroke-linejoin:miter;stroke-opacity:1"
       d="m -74.902284,-44.032654 c 0,0 -4.439642,-1.14495 -4.439642,-7.825679 0,0 -2.282032,-0.628386 -4.960939,0.661458"
       id="path860"
       inkscape:transform-center-x="1.3439841"
       inkscape:transform-center-y="2.7307466" />
    <path
       style="fill:none;stroke:#000000;stroke-width:0.264583px;stroke-linecap:butt;stroke-linejoin:miter;stroke-opacity:1"
       d="m -79.341926,-51.858333 c 0,0 0.959114,-0.297656 2.645833,-0.06615"
       id="path862"
       inkscape:transform-center-x="-0.23958091"
       inkscape:transform-center-y="-1.1827248" />
  </g>
</svg>
