<?xml version="1.0" encoding="UTF-8" standalone="no"?>
<svg
   xmlns:dc="http://purl.org/dc/elements/1.1/"
   xmlns:cc="http://creativecommons.org/ns#"
   xmlns:rdf="http://www.w3.org/1999/02/22-rdf-syntax-ns#"
   xmlns:svg="http://www.w3.org/2000/svg"
   xmlns="http://www.w3.org/2000/svg"
   xmlns:sodipodi="http://sodipodi.sourceforge.net/DTD/sodipodi-0.dtd"
   xmlns:inkscape="http://www.inkscape.org/namespaces/inkscape"
   width="210mm"
   height="297mm"
   viewBox="0 0 210 297"
   version="1.1"
   id="svg8"
   inkscape:version="1.0.1 (3bc2e813f5, 2020-09-07)"
   sodipodi:docname="RoadRunner.svg"
   inkscape:export-filename="C:\Users\user\Desktop\main RoadRunner Left Leg.png"
   inkscape:export-xdpi="200"
   inkscape:export-ydpi="200">
  <title
     id="title833">RoadRunner</title>
  <defs
     id="defs2" />
  <sodipodi:namedview
     id="base"
     pagecolor="#ffffff"
     bordercolor="#666666"
     borderopacity="1.0"
     inkscape:pageopacity="0.0"
     inkscape:pageshadow="2"
     inkscape:zoom="0.68841315"
     inkscape:cx="668.81881"
     inkscape:cy="582.67698"
     inkscape:document-units="px"
     inkscape:current-layer="layer4"
     inkscape:document-rotation="0"
     showgrid="false"
     inkscape:window-width="1920"
     inkscape:window-height="1017"
     inkscape:window-x="-8"
     inkscape:window-y="-8"
     inkscape:window-maximized="1"
     showborder="true" />
  <metadata
     id="metadata5">
    <rdf:RDF>
      <cc:Work
         rdf:about="">
        <dc:format>image/svg+xml</dc:format>
        <dc:type
           rdf:resource="http://purl.org/dc/dcmitype/StillImage" />
        <dc:title>RoadRunner</dc:title>
      </cc:Work>
    </rdf:RDF>
  </metadata>
  <g
     inkscape:groupmode="layer"
     id="layer7"
     inkscape:label="Tail"
     style="display:inline;opacity:1">
    <path
       style="fill:#579bab;fill-opacity:1;stroke:#000000;stroke-width:0.264583px;stroke-linecap:butt;stroke-linejoin:miter;stroke-opacity:1"
       d="m 110.66994,166.00429 c 0,0 -5.23848,-8.79317 -3.55469,-39.10153 0,0 1.87089,-28.250392 -14.405826,-45.649638 0,0 -24.32152,-46.210898 -49.01723,-58.371668 0,0 -58.55875,-22.07646044 -8.04481,9.9157 0,0 18.89595,12.34785 17.96051,14.03165 0,0 -12.72203,-4.8643 -2.43215,7.670639 0,0 13.09621,15.154182 14.40583,15.154182 0,0 -4.33053,0.593252 1.4903,6.546378 0,0 -39.62135,-7.474481 -3.57187,12.170832 0,0 8.79739,2.84427 13.62604,6.085415 0,0 -0.7276,6.08542 2.97656,8.40052 l 4.43177,4.29948 c 0,0 -0.7276,5.82083 2.51354,9.525 0,0 -7.01146,-0.99219 2.31511,11.31094 l 8.33437,12.56771 c 0,0 -21.10052,-19.24844 -5.22552,5.35781 0,0 4.56406,4.43177 5.15938,4.56406 0,0 7.011446,15.47813 8.268226,17.39636 l 4.77046,-1.87384"
       id="path904"
       sodipodi:nodetypes="cccccccccccccccccccc" />
    <path
       style="fill:none;stroke:#000000;stroke-width:0.264583px;stroke-linecap:butt;stroke-linejoin:miter;stroke-opacity:1"
       d="m 53.607894,46.828804 c 0,0 10.42128,9.395156 11.47961,11.114948"
       id="path914" />
    <path
       style="fill:none;stroke:#000000;stroke-width:0.264583px;stroke-linecap:butt;stroke-linejoin:miter;stroke-opacity:1"
       d="m 65.581574,69.653625 c 0,0 6.3851,4.42971 6.3851,5.091168"
       id="path916" />
    <path
       style="fill:none;stroke:#000000;stroke-width:0.264583px;stroke-linecap:butt;stroke-linejoin:miter;stroke-opacity:1"
       d="m 67.071874,76.200004 c 0,0 4.36563,3.836456 5.29167,3.571873 0.92604,-0.264584 8.33438,5.556249 8.33438,5.556249"
       id="path918" />
    <path
       style="fill:none;stroke:#000000;stroke-width:0.264583px;stroke-linecap:butt;stroke-linejoin:miter;stroke-opacity:1"
       d="m 77.126044,94.456251 c 0,0 11.77396,6.085419 12.7,8.069789"
       id="path920" />
    <path
       style="fill:none;stroke:#000000;stroke-width:0.264583px;stroke-linecap:butt;stroke-linejoin:miter;stroke-opacity:1"
       d="m 84.534374,107.15625 10.18646,9.525"
       id="path922" />
    <path
       style="fill:none;stroke:#000000;stroke-width:0.264583px;stroke-linecap:butt;stroke-linejoin:miter;stroke-opacity:1"
       d="m 87.047914,116.68125 4.8948,5.29167"
       id="path924" />
  </g>
  <g
     inkscape:groupmode="layer"
     id="g993"
     inkscape:label="Rightleg"
     style="display:none;opacity:1">
    <path
       style="fill:none;stroke:#000000;stroke-width:0.264583px;stroke-linecap:butt;stroke-linejoin:miter;stroke-opacity:1"
       d="M 136.82274,182.20773 Z"
       id="path971"
       inkscape:transform-center-x="-2.7995823"
       inkscape:transform-center-y="8.7738656" />
    <path
       style="display:inline;fill:#579bab;fill-opacity:1;stroke:#000000;stroke-width:0.264583px;stroke-linecap:butt;stroke-linejoin:miter;stroke-opacity:1"
       d="m 136.82274,182.20773 -13.67846,-4.93006 c 0,0 -5.58206,7.26018 -8.20944,7.78203 0,0 0.79762,9.18037 7.71732,6.29059 0,0 6.42705,-4.34728 8.572,-3.89406 2.14494,0.45323 5.59858,-5.2485 5.59858,-5.2485"
       id="path973"
       sodipodi:nodetypes="ccccsc"
       inkscape:transform-center-x="8.1443656"
       inkscape:transform-center-y="11.161484" />
    <path
       style="fill:#a81a00;fill-opacity:1;stroke:#000000;stroke-width:0.264583px;stroke-linecap:butt;stroke-linejoin:miter;stroke-opacity:1"
       d="m 122.65216,191.35029 -1.29689,1.08476 c 0,0 -2.49129,7.30558 -1.9845,13.20084 0,0 -0.74623,18.84247 0.0883,24.94112 0,0 2.16331,14.52008 2.49103,14.72346 0,0 9.3509,2.8528 16.31727,1.5021 0,0 8.60196,-0.13535 8.86155,0.19928 0,0 3.98619,-1.13082 6.08473,0.0915 0,0 16.81847,-5.43647 20.37722,13.07377 0,0 1.6147,2.60425 1.40038,3.65947 0,0 -2.69974,-0.83441 -2.74898,-1.95975 0,0 -3.25967,1.20794 -4.83804,0.58883 0,0 1.27109,3.45908 0.64006,5.83111 0,0 0.49035,2.58735 0.14972,3.24377 0,0 -1.70668,-0.88565 -1.89118,-1.81456 0,0 -4.94194,3.10111 -18.80029,-7.95626 0,0 -7.78157,-10.43687 -23.13559,-10.00605 0,0 -10.29173,-1.87463 -22.35719,4.22865 0,0 -1.8648,0.83195 -4.629666,-0.0696 0,0 -3.94691,2.9176 -1.23379,-1.54008 0,0 -1.63313,-5.77987 6.220896,-8.96952 0,0 5.60131,-2.95888 11.50409,0.43747 0,0 2.95536,1.43364 4.62374,0.46638 l -7.33194,-44.76365 c 0,0 -1.2235,-15.4321 0.34993,-14.48231 0,0 -0.0784,-1.19595 3.42181,-2.00134 0,0 0.77528,9.10986 7.71732,6.29058"
       id="path975"
       sodipodi:nodetypes="ccccccccccccccccccccccccccc"
       inkscape:transform-center-x="-1.0793093"
       inkscape:transform-center-y="54.86123" />
    <path
       style="fill:none;stroke:#000000;stroke-width:0.264583px;stroke-linecap:butt;stroke-linejoin:miter;stroke-opacity:1"
       d="m 153.21366,247.09331 c 0,0 -0.95316,0.69682 -1.0919,1.12474"
       id="path977"
       inkscape:transform-center-x="-18.644553"
       inkscape:transform-center-y="74.221818" />
    <path
       style="fill:none;stroke:#000000;stroke-width:0.264583px;stroke-linecap:butt;stroke-linejoin:miter;stroke-opacity:1"
       d="m 147.12893,247.00185 c 0,0 -1.08283,0.52125 -1.16245,0.86736"
       id="path979"
       inkscape:transform-center-x="-12.524548"
       inkscape:transform-center-y="74.001665" />
    <path
       style="fill:none;stroke:#000000;stroke-width:0.264583px;stroke-linecap:butt;stroke-linejoin:miter;stroke-opacity:1"
       d="m 167.40424,262.45564 c 0,0 -5.8534,-13.28554 -15.97527,-11.05612 0,0 -1.99288,-1.6507 -8.09649,-0.48549 0,0 -0.21657,-0.99556 -4.026,-0.6228 -3.80941,0.37275 -7.0022,-0.66748 -7.0022,-0.66748"
       id="path981"
       inkscape:transform-center-x="-15.831099"
       inkscape:transform-center-y="82.605834" />
    <path
       style="fill:none;stroke:#000000;stroke-width:0.264583px;stroke-linecap:butt;stroke-linejoin:miter;stroke-opacity:1"
       d="m 143.33248,250.91403 c 0,0 -1.10023,0.57886 -0.97193,0.84538"
       id="path983"
       inkscape:transform-center-x="-8.8181559"
       inkscape:transform-center-y="77.902859" />
    <path
       style="fill:none;stroke:#000000;stroke-width:0.264583px;stroke-linecap:butt;stroke-linejoin:miter;stroke-opacity:1"
       d="m 151.42897,251.39952 c 0,0 -1.56867,0.93566 -1.44186,1.30141"
       id="path985"
       inkscape:transform-center-x="-16.681237"
       inkscape:transform-center-y="78.616364" />
    <path
       style="fill:none;stroke:#000000;stroke-width:0.264583px;stroke-linecap:butt;stroke-linejoin:miter;stroke-opacity:1"
       d="m 168.0443,268.28675 c 0,0 -0.9192,1.73924 -1.74146,1.42921"
       id="path987"
       inkscape:transform-center-x="-33.150416"
       inkscape:transform-center-y="95.586003" />
    <path
       style="fill:none;stroke:#000000;stroke-width:0.264583px;stroke-linecap:butt;stroke-linejoin:miter;stroke-opacity:1"
       d="m 173.59088,260.16709 c 0,0 0.13603,1.95355 -1.3486,1.69972"
       id="path989"
       inkscape:transform-center-x="-38.895054"
       inkscape:transform-center-y="87.594466" />
    <path
       style="fill:none;stroke:#000000;stroke-width:0.264583px;stroke-linecap:butt;stroke-linejoin:miter;stroke-opacity:1"
       d="m 96.146314,254.37265 c 0,0 0.40507,1.65992 1.23379,1.54008"
       id="path991"
       inkscape:transform-center-x="37.259949"
       inkscape:transform-center-y="81.711925" />
  </g>
  <g
     inkscape:groupmode="layer"
     id="layer8"
     inkscape:label="Leftleg"
     style="display:none;opacity:1">
    <path
       style="fill:none;stroke:#000000;stroke-width:0.264583px;stroke-linecap:butt;stroke-linejoin:miter;stroke-opacity:1"
       d="M 131.53033,183.21645 Z"
       id="path931" />
    <path
       style="display:inline;fill:#579bab;fill-opacity:1;stroke:#000000;stroke-width:0.264583px;stroke-linecap:butt;stroke-linejoin:miter;stroke-opacity:1"
       d="m 131.53033,183.21645 -13.75102,-4.72399 c 0,0 -5.47235,7.34323 -8.09159,7.90449 0,0 0.93545,9.16735 7.81095,6.17393 0,0 6.36102,-4.44336 8.51254,-4.02241 2.15152,0.42095 5.51912,-5.33202 5.51912,-5.33202"
       id="path933"
       sodipodi:nodetypes="ccccsc" />
    <path
       style="fill:#a81a00;fill-opacity:1;stroke:#000000;stroke-width:0.264583px;stroke-linecap:butt;stroke-linejoin:miter;stroke-opacity:1"
       d="m 117.49867,192.57088 -1.28044,1.10412 c 0,0 -2.38125,7.34219 -1.78594,13.22917 0,0 -0.46302,18.85156 0.46302,24.93698 0,0 2.38125,14.48593 2.71198,14.68437 0,0 9.39271,2.71198 16.33802,1.25677 0,0 8.59896,-0.26458 8.86354,0.0661 0,0 3.96875,-1.19058 6.08542,4e-5 0,0 16.7349,-5.68853 20.57135,12.76615 0,0 1.65365,2.57969 1.45521,3.63802 0,0 -2.71198,-0.79375 -2.77812,-1.91823 0,0 -3.24115,1.25677 -4.82865,0.66146 0,0 1.32292,3.43958 0.72761,5.82083 0,0 0.52916,2.57969 0.19844,3.24115 0,0 -1.7198,-0.8599 -1.91824,-1.78594 0,0 -4.89479,3.175 -18.9177,-7.67291 0,0 -7.9375,-10.31876 -23.28334,-9.6573 0,0 -10.31875,-1.71979 -22.291136,4.56406 0,0 -1.85209,0.8599 -4.63021,1e-5 0,0 -3.90261,2.97656 -1.25678,-1.52136 0,0 -1.71979,-5.75469 6.08542,-9.06197 0,0 5.556246,-3.04271 11.509376,0.26457 0,0 2.97656,1.38907 4.63021,0.39688 l -8.00365,-44.64843 c 0,0 -1.45521,-15.41198 0.13229,-14.48594 0,0 -0.0964,-1.19464 3.39137,-2.05253 0,0 0.91205,9.09719 7.81095,6.17393"
       id="path935"
       sodipodi:nodetypes="ccccccccccccccccccccccccccc" />
    <path
       style="fill:none;stroke:#000000;stroke-width:0.264583px;stroke-linecap:butt;stroke-linejoin:miter;stroke-opacity:1"
       d="m 148.89427,247.84843 c 0,0 -0.94258,0.71107 -1.07487,1.14102"
       id="path953" />
    <path
       style="fill:none;stroke:#000000;stroke-width:0.264583px;stroke-linecap:butt;stroke-linejoin:miter;stroke-opacity:1"
       d="m 142.80886,247.84839 c 0,0 -1.07487,0.53748 -1.14929,0.88474"
       id="path955" />
    <path
       style="fill:none;stroke:#000000;stroke-width:0.264583px;stroke-linecap:butt;stroke-linejoin:miter;stroke-opacity:1"
       d="m 163.31406,262.99583 c 0,0 -6.05234,-13.1961 -16.13958,-10.81485 0,0 -2.01745,-1.62057 -8.10287,-0.3638 0,0 -0.23151,-0.99218 -4.03489,-0.56223 -3.80339,0.42994 -7.01146,-0.56224 -7.01146,-0.56224"
       id="path959" />
    <path
       style="fill:none;stroke:#000000;stroke-width:0.264583px;stroke-linecap:butt;stroke-linejoin:miter;stroke-opacity:1"
       d="m 139.07162,251.81718 c 0,0 -1.09141,0.59532 -0.95912,0.8599"
       id="path961" />
    <path
       style="fill:none;stroke:#000000;stroke-width:0.264583px;stroke-linecap:butt;stroke-linejoin:miter;stroke-opacity:1"
       d="m 147.17448,252.18098 c 0,0 -1.55443,0.95912 -1.42214,1.32292"
       id="path963" />
    <path
       style="fill:none;stroke:#000000;stroke-width:0.264583px;stroke-linecap:butt;stroke-linejoin:miter;stroke-opacity:1"
       d="m 164.04167,268.81666 c 0,0 -0.89297,1.75286 -1.71979,1.45521"
       id="path965" />
    <path
       style="fill:none;stroke:#000000;stroke-width:0.264583px;stroke-linecap:butt;stroke-linejoin:miter;stroke-opacity:1"
       d="m 169.46563,260.61458 c 0,0 0.16536,1.9513 -1.32292,1.71979"
       id="path967" />
    <path
       style="fill:none;stroke:#000000;stroke-width:0.264583px;stroke-linecap:butt;stroke-linejoin:miter;stroke-opacity:1"
       d="m 91.942704,255.98437 c 0,0 0.42997,1.65365 1.25678,1.52136"
       id="path969" />
  </g>
  <g
     inkscape:groupmode="layer"
     id="layer5"
     inkscape:label="Body"
     style="display:inline">
    <path
       style="fill:#579bab;fill-opacity:1;stroke:#000000;stroke-width:0.264583px;stroke-linecap:butt;stroke-linejoin:miter;stroke-opacity:1"
       d="m 143.66875,157.55938 c 0,0 -15.61042,1.98437 -24.34167,6.2177 0,0 -6.61458,0.39688 -9.12813,0.26459 0,0 -7.9375,-0.13229 -8.73125,2.38125 0,0 -17.859366,-7.40834 -1.852076,5.29166 0,0 8.598956,4.7625 9.392706,4.23334 0,0 11.37708,11.90625 30.95625,8.06979 0,0 6.74688,2.64583 13.09688,-31.61771 0,0 3.175,-7.9375 2.51354,-20.10833 0,0 -1.98438,-31.22084 -2.51354,-31.75 l -10.58333,3.43958 c 0,0 19.84375,25.00313 1.19062,53.57813 z"
       id="path56"
       sodipodi:nodetypes="cccccccccccc" />
  </g>
  <g
     inkscape:groupmode="layer"
     id="layer6"
     inkscape:label="Wing"
     style="display:inline;opacity:1">
    <path
       style="fill:#311a88;fill-opacity:1;stroke:#000000;stroke-width:0.264583px;stroke-linecap:butt;stroke-linejoin:miter;stroke-opacity:1"
       d="m 139.10742,164.83498 c 0,0 1.1693,11.31887 -10.14957,15.71545 0,0 -10.71082,-0.28063 -19.69108,-4.77076 0,0 -17.071836,-6.26747 -16.183166,-10.38342 0,0 -1.1693,-3.83532 7.951266,0.79513 0,0 1.96443,-3.18051 14.26551,-1.73057 0,0 3.08698,0.65481 4.81754,-0.42095 0,0 13.00266,-4.30304 18.9895,0.79512 z"
       id="path890"
       sodipodi:nodetypes="cccccccc" />
    <path
       style="fill:none;stroke:#000000;stroke-width:0.264583px;stroke-linecap:butt;stroke-linejoin:miter;stroke-opacity:1"
       d="m 111.72031,166.6875 c -0.59531,-0.26458 -10.68544,-0.49612 -10.68544,-0.49612 0,0 6.71669,3.40654 7.44429,3.14195"
       id="path900" />
    <path
       style="fill:none;stroke:#000000;stroke-width:0.264583px;stroke-linecap:butt;stroke-linejoin:miter;stroke-opacity:1"
       d="m 109.26677,175.77967 c 0,0 -9.458526,-6.97912 10.85115,-11.73981"
       id="path902" />
  </g>
  <g
     inkscape:groupmode="layer"
     id="layer4"
     inkscape:label="Eye"
     style="display:inline">
    <path
       style="fill:#fff5c3;fill-opacity:1;stroke:#000000;stroke-width:0.264583px;stroke-linecap:butt;stroke-linejoin:miter;stroke-opacity:1"
       d="m 158.05015,91.262368 0.93544,3.227279 -16.27672,-1.309621 -4.30303,-13.891334 4.76682,0.648549 c 0,0 12.91306,1.409428 14.87749,11.325127"
       id="path899"
       sodipodi:nodetypes="cccccc" />
    <path
       style="fill:#311a00;fill-opacity:1;stroke:#000000;stroke-width:0.264583px;stroke-linecap:butt;stroke-linejoin:miter;stroke-opacity:1"
       d="m 151.27552,82.748439 c 0,0 1.60404,0.909505 2.48047,1.637109 0,0 -0.0661,3.704166 -2.21589,2.182812 0,0 -1.93476,-1.091404 -0.26458,-3.819921 z"
       id="path905" />
  </g>
  <g
     inkscape:groupmode="layer"
     id="layer3"
     inkscape:label="Hair"
     style="display:inline">
    <path
       id="path839"
       style="fill:#311a88;fill-opacity:1;stroke:#000000;stroke-width:0.264583px;stroke-linecap:butt;stroke-linejoin:miter;stroke-opacity:1"
       d="m 136.47901,35.1777 c -3.57125,-0.03121 -9.06456,3.887099 -9.06456,3.887099 -10.7576,7.015832 -8.27857,18.521352 -8.27857,18.521352 -2.15152,-3.274052 -2.71301,-14.26528 -2.71301,-14.26528 -0.51449,-1.122529 -2.66599,-0.467672 -2.66599,-0.467672 -3.46114,13.751017 -0.14004,18.381308 -0.14004,18.381308 4.34981,4.630443 7.16545,6.465755 7.16545,6.465755 8.76432,6.250781 11.80703,13.460677 11.80703,13.460677 0,0 0.62839,1.025257 0.19844,0.992187 -0.42995,-0.03307 -0.36897,0.643371 -0.36897,0.643371 -0.51449,3.180509 3.22771,13.704591 3.22771,13.704591 l 9.47746,-6.476608 c -4.16719,-4.696354 -5.72161,-10.351823 -4.63021,-9.855729 1.09141,0.496094 2.40244,-0.412377 2.40244,-0.412377 -3.55469,-3.507912 -6.36137,-1.356508 -6.36137,-1.356508 -6.2207,-12.722029 6.12727,-14.218769 6.12727,-14.218769 6.03361,0.420949 5.89318,-3.414263 5.89318,-3.414263 21.98292,3.320825 4.77077,-6.969082 4.77077,-6.969082 1.26286,-0.18709 0.0935,-1.730645 0.0935,-1.730645 20.29912,2.385377 17.72656,-4.723741 17.72656,-4.723741 -12.86234,-13.797791 -32.74012,-8.933304 -32.74012,-8.933304 0.98222,-1.309622 -0.88883,-3.087151 -0.88883,-3.087151 -0.3201,-0.09647 -0.66874,-0.141983 -1.03818,-0.145211 z" />
    <path
       style="fill:none;stroke:#000000;stroke-width:0.264583px;stroke-linecap:butt;stroke-linejoin:miter;stroke-opacity:1"
       d="m 138.40583,38.409814 c 0,0 -9.30766,5.84652 -10.7576,8.980259"
       id="path871" />
    <path
       style="fill:none;stroke:#000000;stroke-width:0.264583px;stroke-linecap:butt;stroke-linejoin:miter;stroke-opacity:1"
       d="m 153.4197,52.06729 c 0,0 -1.12253,-3.133735 -8.18513,-3.040191"
       id="path863" />
    <path
       style="fill:none;stroke:#000000;stroke-width:0.264583px;stroke-linecap:butt;stroke-linejoin:miter;stroke-opacity:1"
       d="m 153.32615,53.797861 c 0,0 -6.59487,-1.870888 -12.44139,-1.216077"
       id="path879" />
    <path
       style="fill:none;stroke:#000000;stroke-width:0.264583px;stroke-linecap:butt;stroke-linejoin:miter;stroke-opacity:1"
       d="m 148.5554,60.766914 c 0,0 -8.60608,-3.835319 -13.89134,0.561265"
       id="path883" />
    <path
       style="fill:none;stroke:#000000;stroke-width:0.264583px;stroke-linecap:butt;stroke-linejoin:miter;stroke-opacity:1"
       d="m 136.53495,78.40002 c 0,0 -1.49671,1.309621 1.35639,5.940065"
       id="path851" />
  </g>
  <g
     inkscape:groupmode="layer"
     id="layer2"
     inkscape:label="Mouth"
     style="display:inline">
    <path
       id="path850"
       style="fill:#ffa814;fill-opacity:1;stroke:#000000;stroke-width:0.264583px;stroke-linecap:butt;stroke-linejoin:miter;stroke-opacity:1"
       d="m 168.98814,85.436129 c -3.30747,8.051496 -11.02466,5.913334 -11.02466,5.913334 -0.30067,3.407688 -4.74441,1.603521 -4.74441,1.603521 -9.45466,-4.242904 -14.19861,-2.973462 -14.19861,-2.973462 -7.34991,7.750815 -4.61006,14.399118 -4.61006,14.399118 5.94675,4.6104 20.34553,-1.30276 20.34553,-1.30276 20.24567,3.20723 14.23221,-17.639751 14.23221,-17.639751 z"
       inkscape:transform-center-x="-0.46719031"
       inkscape:transform-center-y="-0.56897846" />
    <path
       style="fill:none;stroke:#000000;stroke-width:0.264583px;stroke-linecap:butt;stroke-linejoin:miter;stroke-opacity:1"
       d="m 154.75605,103.07568 c 0,0 -4.43964,-1.14495 -4.43964,-7.825679 0,0 -2.28203,-0.628386 -4.96094,0.661458"
       id="path860"
       inkscape:transform-center-x="1.3439841"
       inkscape:transform-center-y="2.7307466" />
    <path
       style="fill:none;stroke:#000000;stroke-width:0.264583px;stroke-linecap:butt;stroke-linejoin:miter;stroke-opacity:1"
       d="m 150.31641,95.250001 c 0,0 0.95911,-0.297656 2.64583,-0.06615"
       id="path862"
       inkscape:transform-center-x="-0.23958091"
       inkscape:transform-center-y="-1.1827248" />
  </g>
</svg>
